<mxfile host="app.diagrams.net" agent="Mozilla/5.0 (Windows NT 10.0; Win64; x64) AppleWebKit/537.36 (KHTML, like Gecko) Chrome/129.0.0.0 Safari/537.36" version="24.7.17">
  <diagram name="Page-1" id="5PrLN07wMzA0Z6A6XOwR">
    <mxGraphModel grid="1" page="1" gridSize="9" guides="1" tooltips="1" connect="1" arrows="1" fold="1" pageScale="1" pageWidth="850" pageHeight="1100" math="0" shadow="0">
      <root>
        <mxCell id="0" />
        <mxCell id="1" parent="0" />
        <mxCell id="eQNqrHPPaoRz0vHPKy6t-2" value="Patient" style="whiteSpace=wrap;html=1;align=center;" vertex="1" parent="1">
          <mxGeometry x="-116" y="814" width="100" height="40" as="geometry" />
        </mxCell>
        <mxCell id="eQNqrHPPaoRz0vHPKy6t-17" style="rounded=0;orthogonalLoop=1;jettySize=auto;html=1;entryX=0;entryY=0.5;entryDx=0;entryDy=0;endArrow=none;endFill=0;exitX=1;exitY=0.5;exitDx=0;exitDy=0;" edge="1" parent="1" source="eQNqrHPPaoRz0vHPKy6t-3" target="eQNqrHPPaoRz0vHPKy6t-13">
          <mxGeometry relative="1" as="geometry" />
        </mxCell>
        <mxCell id="eQNqrHPPaoRz0vHPKy6t-18" style="rounded=0;orthogonalLoop=1;jettySize=auto;html=1;entryX=0;entryY=0.5;entryDx=0;entryDy=0;endArrow=none;endFill=0;exitX=1;exitY=0.5;exitDx=0;exitDy=0;" edge="1" parent="1" source="eQNqrHPPaoRz0vHPKy6t-3" target="eQNqrHPPaoRz0vHPKy6t-12">
          <mxGeometry relative="1" as="geometry" />
        </mxCell>
        <mxCell id="eQNqrHPPaoRz0vHPKy6t-19" style="rounded=0;orthogonalLoop=1;jettySize=auto;html=1;entryX=0;entryY=0.5;entryDx=0;entryDy=0;endArrow=none;endFill=0;exitX=1;exitY=0.5;exitDx=0;exitDy=0;" edge="1" parent="1" source="eQNqrHPPaoRz0vHPKy6t-3" target="eQNqrHPPaoRz0vHPKy6t-14">
          <mxGeometry relative="1" as="geometry" />
        </mxCell>
        <mxCell id="eQNqrHPPaoRz0vHPKy6t-3" value="Insurance" style="whiteSpace=wrap;html=1;align=center;" vertex="1" parent="1">
          <mxGeometry x="-526" y="473" width="100" height="40" as="geometry" />
        </mxCell>
        <mxCell id="eQNqrHPPaoRz0vHPKy6t-20" style="rounded=0;orthogonalLoop=1;jettySize=auto;html=1;entryX=1;entryY=0.5;entryDx=0;entryDy=0;endArrow=none;endFill=0;exitX=0;exitY=0.5;exitDx=0;exitDy=0;" edge="1" parent="1" source="eQNqrHPPaoRz0vHPKy6t-4" target="eQNqrHPPaoRz0vHPKy6t-7">
          <mxGeometry relative="1" as="geometry" />
        </mxCell>
        <mxCell id="eQNqrHPPaoRz0vHPKy6t-21" style="rounded=0;orthogonalLoop=1;jettySize=auto;html=1;entryX=1;entryY=0.5;entryDx=0;entryDy=0;endArrow=none;endFill=0;exitX=0;exitY=0.5;exitDx=0;exitDy=0;" edge="1" parent="1" source="eQNqrHPPaoRz0vHPKy6t-4" target="eQNqrHPPaoRz0vHPKy6t-11">
          <mxGeometry relative="1" as="geometry" />
        </mxCell>
        <mxCell id="yMdxF9pOSsyhUp3QB0oe-2" style="edgeStyle=orthogonalEdgeStyle;rounded=0;orthogonalLoop=1;jettySize=auto;html=1;entryX=0.5;entryY=0;entryDx=0;entryDy=0;endArrow=none;endFill=0;" edge="1" parent="1" source="eQNqrHPPaoRz0vHPKy6t-4" target="yMdxF9pOSsyhUp3QB0oe-1">
          <mxGeometry relative="1" as="geometry" />
        </mxCell>
        <mxCell id="eQNqrHPPaoRz0vHPKy6t-4" value="Procedure" style="whiteSpace=wrap;html=1;align=center;" vertex="1" parent="1">
          <mxGeometry x="848" y="433" width="100" height="40" as="geometry" />
        </mxCell>
        <mxCell id="eQNqrHPPaoRz0vHPKy6t-7" value="Procedure_ID" style="ellipse;whiteSpace=wrap;html=1;align=center;fontStyle=4;" vertex="1" parent="1">
          <mxGeometry x="998" y="424" width="100" height="40" as="geometry" />
        </mxCell>
        <mxCell id="eQNqrHPPaoRz0vHPKy6t-8" value="Insurance_Policy_ID" style="ellipse;whiteSpace=wrap;html=1;align=center;fontStyle=4;" vertex="1" parent="1">
          <mxGeometry x="-648" y="334" width="130" height="40" as="geometry" />
        </mxCell>
        <mxCell id="eQNqrHPPaoRz0vHPKy6t-11" value="Per_Unit_Charge" style="ellipse;whiteSpace=wrap;html=1;align=center;" vertex="1" parent="1">
          <mxGeometry x="880" y="337" width="100" height="40" as="geometry" />
        </mxCell>
        <mxCell id="eQNqrHPPaoRz0vHPKy6t-12" value="Insurance_Company" style="ellipse;whiteSpace=wrap;html=1;align=center;" vertex="1" parent="1">
          <mxGeometry x="-392" y="302" width="130" height="40" as="geometry" />
        </mxCell>
        <mxCell id="eQNqrHPPaoRz0vHPKy6t-13" value="Insurance_Type" style="ellipse;whiteSpace=wrap;html=1;align=center;" vertex="1" parent="1">
          <mxGeometry x="-518" y="306" width="100" height="40" as="geometry" />
        </mxCell>
        <mxCell id="eQNqrHPPaoRz0vHPKy6t-14" value="Coverage_Details" style="ellipse;whiteSpace=wrap;html=1;align=center;" vertex="1" parent="1">
          <mxGeometry x="-386" y="348" width="100" height="40" as="geometry" />
        </mxCell>
        <mxCell id="eQNqrHPPaoRz0vHPKy6t-38" style="rounded=0;orthogonalLoop=1;jettySize=auto;html=1;entryX=0;entryY=0.5;entryDx=0;entryDy=0;endArrow=none;endFill=0;" edge="1" parent="1" source="eQNqrHPPaoRz0vHPKy6t-25" target="eQNqrHPPaoRz0vHPKy6t-2">
          <mxGeometry relative="1" as="geometry" />
        </mxCell>
        <mxCell id="eQNqrHPPaoRz0vHPKy6t-25" value="Current_HIPAA_&lt;div&gt;Status&lt;/div&gt;" style="ellipse;whiteSpace=wrap;html=1;align=center;" vertex="1" parent="1">
          <mxGeometry x="-441" y="774" width="100" height="40" as="geometry" />
        </mxCell>
        <mxCell id="eQNqrHPPaoRz0vHPKy6t-36" style="rounded=0;orthogonalLoop=1;jettySize=auto;html=1;entryX=0;entryY=0.5;entryDx=0;entryDy=0;endArrow=none;endFill=0;" edge="1" parent="1" source="eQNqrHPPaoRz0vHPKy6t-26" target="eQNqrHPPaoRz0vHPKy6t-2">
          <mxGeometry relative="1" as="geometry" />
        </mxCell>
        <mxCell id="eQNqrHPPaoRz0vHPKy6t-26" value="Insurance_&lt;div&gt;Policy_ID(FK)&lt;/div&gt;" style="ellipse;whiteSpace=wrap;html=1;align=center;" vertex="1" parent="1">
          <mxGeometry x="-441" y="709" width="100" height="40" as="geometry" />
        </mxCell>
        <mxCell id="eQNqrHPPaoRz0vHPKy6t-34" style="rounded=0;orthogonalLoop=1;jettySize=auto;html=1;entryX=1;entryY=0.25;entryDx=0;entryDy=0;endArrow=none;endFill=0;" edge="1" parent="1" source="eQNqrHPPaoRz0vHPKy6t-28" target="1EifoONmQTZ0GJib-Hqg-18">
          <mxGeometry relative="1" as="geometry" />
        </mxCell>
        <mxCell id="eQNqrHPPaoRz0vHPKy6t-28" value="Allergy_Info" style="ellipse;whiteSpace=wrap;html=1;align=center;" vertex="1" parent="1">
          <mxGeometry x="572.5" y="936" width="100" height="40" as="geometry" />
        </mxCell>
        <mxCell id="eQNqrHPPaoRz0vHPKy6t-43" style="rounded=0;orthogonalLoop=1;jettySize=auto;html=1;entryX=0.25;entryY=1;entryDx=0;entryDy=0;endArrow=none;endFill=0;" edge="1" parent="1" source="eQNqrHPPaoRz0vHPKy6t-30" target="1EifoONmQTZ0GJib-Hqg-18">
          <mxGeometry relative="1" as="geometry" />
        </mxCell>
        <mxCell id="eQNqrHPPaoRz0vHPKy6t-30" value="Last_XRay_Date" style="ellipse;whiteSpace=wrap;html=1;align=center;" vertex="1" parent="1">
          <mxGeometry x="312.5" y="1189" width="100" height="40" as="geometry" />
        </mxCell>
        <mxCell id="eQNqrHPPaoRz0vHPKy6t-42" style="rounded=0;orthogonalLoop=1;jettySize=auto;html=1;entryX=0;entryY=0.5;entryDx=0;entryDy=0;endArrow=none;endFill=0;" edge="1" parent="1" source="eQNqrHPPaoRz0vHPKy6t-31" target="eQNqrHPPaoRz0vHPKy6t-2">
          <mxGeometry relative="1" as="geometry" />
        </mxCell>
        <mxCell id="eQNqrHPPaoRz0vHPKy6t-31" value="Signed_HIPAA_&lt;div&gt;Form_Date&lt;/div&gt;" style="ellipse;whiteSpace=wrap;html=1;align=center;" vertex="1" parent="1">
          <mxGeometry x="-359" y="879" width="100" height="40" as="geometry" />
        </mxCell>
        <mxCell id="1EifoONmQTZ0GJib-Hqg-1" value="Appointment" style="rounded=0;whiteSpace=wrap;html=1;" vertex="1" parent="1">
          <mxGeometry x="357.5" y="739" width="120" height="60" as="geometry" />
        </mxCell>
        <mxCell id="1EifoONmQTZ0GJib-Hqg-2" value="" style="endArrow=none;html=1;rounded=0;exitX=0.897;exitY=-0.021;exitDx=0;exitDy=0;exitPerimeter=0;" edge="1" parent="1" source="1EifoONmQTZ0GJib-Hqg-1" target="1EifoONmQTZ0GJib-Hqg-3">
          <mxGeometry width="50" height="50" relative="1" as="geometry">
            <mxPoint x="177.5" y="529" as="sourcePoint" />
            <mxPoint x="517.5" y="659" as="targetPoint" />
          </mxGeometry>
        </mxCell>
        <mxCell id="1EifoONmQTZ0GJib-Hqg-3" value="&lt;u&gt;Appointment_ID&lt;/u&gt;" style="ellipse;whiteSpace=wrap;html=1;" vertex="1" parent="1">
          <mxGeometry x="607.5" y="604" width="110" height="40" as="geometry" />
        </mxCell>
        <mxCell id="1EifoONmQTZ0GJib-Hqg-4" value="" style="endArrow=none;html=1;rounded=0;exitX=1;exitY=0.25;exitDx=0;exitDy=0;" edge="1" parent="1" source="1EifoONmQTZ0GJib-Hqg-1" target="1EifoONmQTZ0GJib-Hqg-5">
          <mxGeometry width="50" height="50" relative="1" as="geometry">
            <mxPoint x="177.5" y="529" as="sourcePoint" />
            <mxPoint x="557.5" y="709" as="targetPoint" />
          </mxGeometry>
        </mxCell>
        <mxCell id="1EifoONmQTZ0GJib-Hqg-5" value="Appointment_Date" style="ellipse;whiteSpace=wrap;html=1;" vertex="1" parent="1">
          <mxGeometry x="567.5" y="669" width="100" height="60" as="geometry" />
        </mxCell>
        <mxCell id="1EifoONmQTZ0GJib-Hqg-6" value="" style="endArrow=none;html=1;rounded=0;exitX=1;exitY=0.5;exitDx=0;exitDy=0;" edge="1" parent="1" source="1EifoONmQTZ0GJib-Hqg-1" target="1EifoONmQTZ0GJib-Hqg-7">
          <mxGeometry width="50" height="50" relative="1" as="geometry">
            <mxPoint x="177.5" y="529" as="sourcePoint" />
            <mxPoint x="607.5" y="779" as="targetPoint" />
          </mxGeometry>
        </mxCell>
        <mxCell id="1EifoONmQTZ0GJib-Hqg-7" value="Supervising_Dentist" style="ellipse;whiteSpace=wrap;html=1;" vertex="1" parent="1">
          <mxGeometry x="547.5" y="739" width="110" height="60" as="geometry" />
        </mxCell>
        <mxCell id="1EifoONmQTZ0GJib-Hqg-8" value="" style="endArrow=none;html=1;rounded=0;entryX=1;entryY=0.75;entryDx=0;entryDy=0;exitX=0;exitY=0.5;exitDx=0;exitDy=0;" edge="1" parent="1" source="1EifoONmQTZ0GJib-Hqg-9" target="1EifoONmQTZ0GJib-Hqg-1">
          <mxGeometry width="50" height="50" relative="1" as="geometry">
            <mxPoint x="557.5" y="819" as="sourcePoint" />
            <mxPoint x="227.5" y="479" as="targetPoint" />
          </mxGeometry>
        </mxCell>
        <mxCell id="1EifoONmQTZ0GJib-Hqg-9" value="Appointment_Time" style="ellipse;whiteSpace=wrap;html=1;" vertex="1" parent="1">
          <mxGeometry x="542.5" y="799" width="135" height="60" as="geometry" />
        </mxCell>
        <mxCell id="1EifoONmQTZ0GJib-Hqg-10" value="" style="endArrow=none;html=1;rounded=0;exitX=0.5;exitY=0;exitDx=0;exitDy=0;" edge="1" parent="1" source="1EifoONmQTZ0GJib-Hqg-1" target="1EifoONmQTZ0GJib-Hqg-11">
          <mxGeometry width="50" height="50" relative="1" as="geometry">
            <mxPoint x="177.5" y="529" as="sourcePoint" />
            <mxPoint x="397.5" y="599" as="targetPoint" />
          </mxGeometry>
        </mxCell>
        <mxCell id="1EifoONmQTZ0GJib-Hqg-11" value="Patient_ID(FK)" style="ellipse;whiteSpace=wrap;html=1;" vertex="1" parent="1">
          <mxGeometry x="632.5" y="531" width="100" height="50" as="geometry" />
        </mxCell>
        <mxCell id="1EifoONmQTZ0GJib-Hqg-12" value="" style="endArrow=none;html=1;rounded=0;exitX=0.75;exitY=1;exitDx=0;exitDy=0;" edge="1" parent="1" source="1EifoONmQTZ0GJib-Hqg-1" target="1EifoONmQTZ0GJib-Hqg-13">
          <mxGeometry width="50" height="50" relative="1" as="geometry">
            <mxPoint x="177.5" y="529" as="sourcePoint" />
            <mxPoint x="517.5" y="891.5" as="targetPoint" />
          </mxGeometry>
        </mxCell>
        <mxCell id="1EifoONmQTZ0GJib-Hqg-13" value="Procedure_ID(FK)" style="ellipse;whiteSpace=wrap;html=1;" vertex="1" parent="1">
          <mxGeometry x="532.5" y="859" width="140" height="57.5" as="geometry" />
        </mxCell>
        <mxCell id="1EifoONmQTZ0GJib-Hqg-16" value="" style="endArrow=none;html=1;rounded=0;exitX=0.25;exitY=1;exitDx=0;exitDy=0;" edge="1" parent="1" source="1EifoONmQTZ0GJib-Hqg-1" target="1EifoONmQTZ0GJib-Hqg-17">
          <mxGeometry width="50" height="50" relative="1" as="geometry">
            <mxPoint x="177.5" y="619" as="sourcePoint" />
            <mxPoint x="337.5" y="939" as="targetPoint" />
          </mxGeometry>
        </mxCell>
        <mxCell id="1EifoONmQTZ0GJib-Hqg-17" value="Status" style="ellipse;whiteSpace=wrap;html=1;" vertex="1" parent="1">
          <mxGeometry x="333" y="889" width="84.5" height="60" as="geometry" />
        </mxCell>
        <mxCell id="1EifoONmQTZ0GJib-Hqg-18" value="Medical_History" style="rounded=0;whiteSpace=wrap;html=1;" vertex="1" parent="1">
          <mxGeometry x="360" y="981" width="120" height="60" as="geometry" />
        </mxCell>
        <mxCell id="1EifoONmQTZ0GJib-Hqg-19" value="" style="endArrow=none;html=1;rounded=0;exitX=1;exitY=0.5;exitDx=0;exitDy=0;" edge="1" parent="1" source="1EifoONmQTZ0GJib-Hqg-18" target="1EifoONmQTZ0GJib-Hqg-20">
          <mxGeometry width="50" height="50" relative="1" as="geometry">
            <mxPoint x="240" y="921" as="sourcePoint" />
            <mxPoint x="600" y="1031" as="targetPoint" />
          </mxGeometry>
        </mxCell>
        <mxCell id="1EifoONmQTZ0GJib-Hqg-20" value="Medications" style="ellipse;whiteSpace=wrap;html=1;" vertex="1" parent="1">
          <mxGeometry x="540" y="991" width="140" height="60" as="geometry" />
        </mxCell>
        <mxCell id="1EifoONmQTZ0GJib-Hqg-21" value="" style="endArrow=none;html=1;rounded=0;entryX=1;entryY=1;entryDx=0;entryDy=0;" edge="1" parent="1" source="1EifoONmQTZ0GJib-Hqg-22" target="1EifoONmQTZ0GJib-Hqg-18">
          <mxGeometry width="50" height="50" relative="1" as="geometry">
            <mxPoint x="550" y="1091" as="sourcePoint" />
            <mxPoint x="290" y="871" as="targetPoint" />
          </mxGeometry>
        </mxCell>
        <mxCell id="1EifoONmQTZ0GJib-Hqg-22" value="Demographics" style="ellipse;whiteSpace=wrap;html=1;" vertex="1" parent="1">
          <mxGeometry x="570" y="1071" width="150" height="70" as="geometry" />
        </mxCell>
        <mxCell id="1EifoONmQTZ0GJib-Hqg-23" value="" style="endArrow=none;html=1;rounded=0;entryX=0.75;entryY=1;entryDx=0;entryDy=0;exitX=0.069;exitY=0.289;exitDx=0;exitDy=0;exitPerimeter=0;" edge="1" parent="1" source="1EifoONmQTZ0GJib-Hqg-24" target="1EifoONmQTZ0GJib-Hqg-18">
          <mxGeometry width="50" height="50" relative="1" as="geometry">
            <mxPoint x="570" y="1171" as="sourcePoint" />
            <mxPoint x="290" y="871" as="targetPoint" />
          </mxGeometry>
        </mxCell>
        <mxCell id="1EifoONmQTZ0GJib-Hqg-24" value="Patient_ID(FK)" style="ellipse;whiteSpace=wrap;html=1;" vertex="1" parent="1">
          <mxGeometry x="595" y="1161" width="135" height="60" as="geometry" />
        </mxCell>
        <mxCell id="1EifoONmQTZ0GJib-Hqg-25" value="" style="endArrow=none;html=1;rounded=0;entryX=0.595;entryY=0.99;entryDx=0;entryDy=0;entryPerimeter=0;exitX=0;exitY=0;exitDx=0;exitDy=0;" edge="1" parent="1" source="1EifoONmQTZ0GJib-Hqg-26" target="1EifoONmQTZ0GJib-Hqg-18">
          <mxGeometry width="50" height="50" relative="1" as="geometry">
            <mxPoint x="520" y="1221" as="sourcePoint" />
            <mxPoint x="290" y="871" as="targetPoint" />
          </mxGeometry>
        </mxCell>
        <mxCell id="1EifoONmQTZ0GJib-Hqg-26" value="Health_Risks" style="ellipse;whiteSpace=wrap;html=1;" vertex="1" parent="1">
          <mxGeometry x="530" y="1211" width="120" height="80" as="geometry" />
        </mxCell>
        <mxCell id="1EifoONmQTZ0GJib-Hqg-27" value="" style="endArrow=none;html=1;rounded=0;entryX=0.5;entryY=1;entryDx=0;entryDy=0;exitX=0.5;exitY=0;exitDx=0;exitDy=0;" edge="1" parent="1" source="1EifoONmQTZ0GJib-Hqg-28" target="1EifoONmQTZ0GJib-Hqg-18">
          <mxGeometry width="50" height="50" relative="1" as="geometry">
            <mxPoint x="460" y="1191" as="sourcePoint" />
            <mxPoint x="410" y="1051" as="targetPoint" />
          </mxGeometry>
        </mxCell>
        <mxCell id="1EifoONmQTZ0GJib-Hqg-28" value="Health_Status" style="ellipse;whiteSpace=wrap;html=1;" vertex="1" parent="1">
          <mxGeometry x="412.5" y="1201" width="120" height="80" as="geometry" />
        </mxCell>
        <mxCell id="1EifoONmQTZ0GJib-Hqg-31" value="Department" style="rounded=0;whiteSpace=wrap;html=1;" vertex="1" parent="1">
          <mxGeometry x="-616" y="1719" width="120" height="60" as="geometry" />
        </mxCell>
        <mxCell id="1EifoONmQTZ0GJib-Hqg-32" value="" style="endArrow=none;html=1;rounded=0;" edge="1" parent="1" target="1EifoONmQTZ0GJib-Hqg-33">
          <mxGeometry width="50" height="50" relative="1" as="geometry">
            <mxPoint x="-576" y="1779" as="sourcePoint" />
            <mxPoint x="-516" y="1889" as="targetPoint" />
          </mxGeometry>
        </mxCell>
        <mxCell id="1EifoONmQTZ0GJib-Hqg-33" value="&lt;u&gt;Department_ID&lt;/u&gt;" style="ellipse;whiteSpace=wrap;html=1;" vertex="1" parent="1">
          <mxGeometry x="-756" y="1839" width="140" height="50" as="geometry" />
        </mxCell>
        <mxCell id="1EifoONmQTZ0GJib-Hqg-34" value="" style="endArrow=none;html=1;rounded=0;exitX=0.75;exitY=1;exitDx=0;exitDy=0;" edge="1" parent="1" source="1EifoONmQTZ0GJib-Hqg-31" target="1EifoONmQTZ0GJib-Hqg-35">
          <mxGeometry width="50" height="50" relative="1" as="geometry">
            <mxPoint x="-576" y="1779" as="sourcePoint" />
            <mxPoint x="-456" y="1859" as="targetPoint" />
          </mxGeometry>
        </mxCell>
        <mxCell id="1EifoONmQTZ0GJib-Hqg-35" value="Location" style="ellipse;whiteSpace=wrap;html=1;" vertex="1" parent="1">
          <mxGeometry x="-648" y="1854" width="130" height="60" as="geometry" />
        </mxCell>
        <mxCell id="1EifoONmQTZ0GJib-Hqg-36" value="" style="endArrow=none;html=1;rounded=0;exitX=1;exitY=0.5;exitDx=0;exitDy=0;" edge="1" parent="1" source="1EifoONmQTZ0GJib-Hqg-31" target="1EifoONmQTZ0GJib-Hqg-37">
          <mxGeometry width="50" height="50" relative="1" as="geometry">
            <mxPoint x="-576" y="1779" as="sourcePoint" />
            <mxPoint x="-376" y="1769" as="targetPoint" />
          </mxGeometry>
        </mxCell>
        <mxCell id="1EifoONmQTZ0GJib-Hqg-37" value="Department_Name" style="ellipse;whiteSpace=wrap;html=1;" vertex="1" parent="1">
          <mxGeometry x="-518" y="1839" width="150" height="70" as="geometry" />
        </mxCell>
        <mxCell id="DyScq_LiReuTui2nNU70-3" style="edgeStyle=orthogonalEdgeStyle;rounded=0;orthogonalLoop=1;jettySize=auto;html=1;entryX=0.5;entryY=0;entryDx=0;entryDy=0;endArrow=none;endFill=0;" edge="1" parent="1" source="MXyoK0AOpPa2jAWidQvX-31" target="DyScq_LiReuTui2nNU70-2">
          <mxGeometry relative="1" as="geometry" />
        </mxCell>
        <mxCell id="DyScq_LiReuTui2nNU70-5" value="1" style="edgeLabel;html=1;align=center;verticalAlign=middle;resizable=0;points=[];" connectable="0" vertex="1" parent="DyScq_LiReuTui2nNU70-3">
          <mxGeometry x="-0.2346" y="2" relative="1" as="geometry">
            <mxPoint y="1" as="offset" />
          </mxGeometry>
        </mxCell>
        <mxCell id="MXyoK0AOpPa2jAWidQvX-31" value="Invoice" style="whiteSpace=wrap;html=1;align=center;" vertex="1" parent="1">
          <mxGeometry x="377.5" y="499.5" width="100" height="40" as="geometry" />
        </mxCell>
        <mxCell id="MXyoK0AOpPa2jAWidQvX-32" style="rounded=0;orthogonalLoop=1;jettySize=auto;html=1;entryX=0;entryY=0.5;entryDx=0;entryDy=0;endArrow=none;endFill=0;" edge="1" parent="1" source="MXyoK0AOpPa2jAWidQvX-33" target="MXyoK0AOpPa2jAWidQvX-31">
          <mxGeometry relative="1" as="geometry" />
        </mxCell>
        <mxCell id="MXyoK0AOpPa2jAWidQvX-33" value="Invoice_ID" style="ellipse;whiteSpace=wrap;html=1;align=center;fontStyle=4;" vertex="1" parent="1">
          <mxGeometry x="171" y="684" width="100" height="40" as="geometry" />
        </mxCell>
        <mxCell id="MXyoK0AOpPa2jAWidQvX-34" style="rounded=0;orthogonalLoop=1;jettySize=auto;html=1;entryX=0;entryY=0.5;entryDx=0;entryDy=0;endArrow=none;endFill=0;" edge="1" parent="1" source="MXyoK0AOpPa2jAWidQvX-35" target="MXyoK0AOpPa2jAWidQvX-31">
          <mxGeometry relative="1" as="geometry" />
        </mxCell>
        <mxCell id="MXyoK0AOpPa2jAWidQvX-35" value="Date_of_Billing" style="ellipse;whiteSpace=wrap;html=1;align=center;" vertex="1" parent="1">
          <mxGeometry x="217.5" y="374" width="100" height="40" as="geometry" />
        </mxCell>
        <mxCell id="MXyoK0AOpPa2jAWidQvX-36" style="rounded=0;orthogonalLoop=1;jettySize=auto;html=1;entryX=1;entryY=0;entryDx=0;entryDy=0;endArrow=none;endFill=0;" edge="1" parent="1" source="MXyoK0AOpPa2jAWidQvX-37" target="MXyoK0AOpPa2jAWidQvX-31">
          <mxGeometry relative="1" as="geometry" />
        </mxCell>
        <mxCell id="MXyoK0AOpPa2jAWidQvX-37" value="Invoice_Status" style="ellipse;whiteSpace=wrap;html=1;align=center;" vertex="1" parent="1">
          <mxGeometry x="495" y="419.5" width="100" height="40" as="geometry" />
        </mxCell>
        <mxCell id="MXyoK0AOpPa2jAWidQvX-38" style="rounded=0;orthogonalLoop=1;jettySize=auto;html=1;entryX=0.5;entryY=0;entryDx=0;entryDy=0;endArrow=none;endFill=0;" edge="1" parent="1" source="MXyoK0AOpPa2jAWidQvX-39" target="MXyoK0AOpPa2jAWidQvX-31">
          <mxGeometry relative="1" as="geometry" />
        </mxCell>
        <mxCell id="MXyoK0AOpPa2jAWidQvX-39" value="Amount_Paid_by_Patient" style="ellipse;whiteSpace=wrap;html=1;align=center;" vertex="1" parent="1">
          <mxGeometry x="232.75" y="328" width="170" height="40" as="geometry" />
        </mxCell>
        <mxCell id="MXyoK0AOpPa2jAWidQvX-40" style="rounded=0;orthogonalLoop=1;jettySize=auto;html=1;entryX=0;entryY=0.5;entryDx=0;entryDy=0;endArrow=none;endFill=0;" edge="1" parent="1" source="MXyoK0AOpPa2jAWidQvX-41" target="MXyoK0AOpPa2jAWidQvX-31">
          <mxGeometry relative="1" as="geometry" />
        </mxCell>
        <mxCell id="MXyoK0AOpPa2jAWidQvX-41" value="Total" style="ellipse;whiteSpace=wrap;html=1;align=center;" vertex="1" parent="1">
          <mxGeometry x="277.5" y="689" width="100" height="40" as="geometry" />
        </mxCell>
        <mxCell id="MXyoK0AOpPa2jAWidQvX-42" style="rounded=0;orthogonalLoop=1;jettySize=auto;html=1;entryX=0.75;entryY=0;entryDx=0;entryDy=0;endArrow=none;endFill=0;" edge="1" parent="1" source="MXyoK0AOpPa2jAWidQvX-43" target="MXyoK0AOpPa2jAWidQvX-31">
          <mxGeometry relative="1" as="geometry" />
        </mxCell>
        <mxCell id="MXyoK0AOpPa2jAWidQvX-43" value="Amount_Covered_by_Insurance" style="ellipse;whiteSpace=wrap;html=1;align=center;" vertex="1" parent="1">
          <mxGeometry x="280.25" y="266" width="190" height="40" as="geometry" />
        </mxCell>
        <mxCell id="MXyoK0AOpPa2jAWidQvX-50" style="rounded=0;orthogonalLoop=1;jettySize=auto;html=1;entryX=0;entryY=0.5;entryDx=0;entryDy=0;endArrow=none;endFill=0;" edge="1" parent="1" source="MXyoK0AOpPa2jAWidQvX-53" target="MXyoK0AOpPa2jAWidQvX-31">
          <mxGeometry relative="1" as="geometry" />
        </mxCell>
        <mxCell id="MXyoK0AOpPa2jAWidQvX-52" style="rounded=0;orthogonalLoop=1;jettySize=auto;html=1;entryX=0;entryY=0.5;entryDx=0;entryDy=0;endArrow=none;endFill=0;" edge="1" parent="1" source="MXyoK0AOpPa2jAWidQvX-53" target="MXyoK0AOpPa2jAWidQvX-31">
          <mxGeometry relative="1" as="geometry" />
        </mxCell>
        <mxCell id="MXyoK0AOpPa2jAWidQvX-53" value="Appointment_ID(FK)" style="ellipse;whiteSpace=wrap;html=1;align=center;" vertex="1" parent="1">
          <mxGeometry x="101" y="466" width="125" height="40" as="geometry" />
        </mxCell>
        <mxCell id="MXyoK0AOpPa2jAWidQvX-55" value="Invoice_Due_Date" style="ellipse;whiteSpace=wrap;html=1;align=center;" vertex="1" parent="1">
          <mxGeometry x="75" y="581" width="120" height="40" as="geometry" />
        </mxCell>
        <mxCell id="MXyoK0AOpPa2jAWidQvX-56" value="Procedure_Record_ID(FK)" style="ellipse;whiteSpace=wrap;html=1;align=center;" vertex="1" parent="1">
          <mxGeometry x="59" y="629" width="145" height="40" as="geometry" />
        </mxCell>
        <mxCell id="MXyoK0AOpPa2jAWidQvX-57" value="" style="endArrow=none;html=1;rounded=0;entryX=0;entryY=0.5;entryDx=0;entryDy=0;exitX=1;exitY=0.5;exitDx=0;exitDy=0;" edge="1" parent="1" source="MXyoK0AOpPa2jAWidQvX-55" target="MXyoK0AOpPa2jAWidQvX-31">
          <mxGeometry relative="1" as="geometry">
            <mxPoint x="239" y="526" as="sourcePoint" />
            <mxPoint x="399" y="526" as="targetPoint" />
          </mxGeometry>
        </mxCell>
        <mxCell id="MXyoK0AOpPa2jAWidQvX-58" value="" style="endArrow=none;html=1;rounded=0;entryX=0;entryY=0.5;entryDx=0;entryDy=0;exitX=0.948;exitY=0.25;exitDx=0;exitDy=0;exitPerimeter=0;" edge="1" parent="1" source="MXyoK0AOpPa2jAWidQvX-56" target="MXyoK0AOpPa2jAWidQvX-31">
          <mxGeometry relative="1" as="geometry">
            <mxPoint x="239" y="526" as="sourcePoint" />
            <mxPoint x="399" y="526" as="targetPoint" />
          </mxGeometry>
        </mxCell>
        <mxCell id="MXyoK0AOpPa2jAWidQvX-62" value="Pending" style="ellipse;whiteSpace=wrap;html=1;align=center;" vertex="1" parent="1">
          <mxGeometry x="453" y="185" width="100" height="40" as="geometry" />
        </mxCell>
        <mxCell id="MXyoK0AOpPa2jAWidQvX-63" value="Paid" style="ellipse;whiteSpace=wrap;html=1;align=center;" vertex="1" parent="1">
          <mxGeometry x="572.5" y="295" width="100" height="40" as="geometry" />
        </mxCell>
        <mxCell id="MXyoK0AOpPa2jAWidQvX-64" value="Overdue" style="ellipse;whiteSpace=wrap;html=1;align=center;" vertex="1" parent="1">
          <mxGeometry x="517.5" y="225" width="100" height="40" as="geometry" />
        </mxCell>
        <mxCell id="MXyoK0AOpPa2jAWidQvX-65" style="rounded=0;orthogonalLoop=1;jettySize=auto;html=1;entryX=0.5;entryY=1;entryDx=0;entryDy=0;endArrow=none;endFill=0;exitX=0.5;exitY=0;exitDx=0;exitDy=0;" edge="1" parent="1" source="MXyoK0AOpPa2jAWidQvX-67" target="MXyoK0AOpPa2jAWidQvX-68">
          <mxGeometry relative="1" as="geometry" />
        </mxCell>
        <mxCell id="MXyoK0AOpPa2jAWidQvX-66" style="rounded=0;orthogonalLoop=1;jettySize=auto;html=1;entryX=1;entryY=0.5;entryDx=0;entryDy=0;endArrow=none;endFill=0;exitX=0;exitY=0.5;exitDx=0;exitDy=0;" edge="1" parent="1" source="MXyoK0AOpPa2jAWidQvX-67" target="MXyoK0AOpPa2jAWidQvX-69">
          <mxGeometry relative="1" as="geometry" />
        </mxCell>
        <mxCell id="MXyoK0AOpPa2jAWidQvX-67" value="Payment" style="whiteSpace=wrap;html=1;align=center;" vertex="1" parent="1">
          <mxGeometry x="-31" y="374" width="100" height="50" as="geometry" />
        </mxCell>
        <mxCell id="MXyoK0AOpPa2jAWidQvX-68" value="Payment_ID" style="ellipse;whiteSpace=wrap;html=1;align=center;fontStyle=4;" vertex="1" parent="1">
          <mxGeometry x="1" y="171" width="100" height="40" as="geometry" />
        </mxCell>
        <mxCell id="MXyoK0AOpPa2jAWidQvX-69" value="&lt;span id=&quot;docs-internal-guid-1eaf34f5-7fff-a1fa-eb80-efd688561aa1&quot; style=&quot;font-size: 11px;&quot;&gt;&lt;span style=&quot;font-size: 11px; font-family: Arial, sans-serif; background-color: transparent; font-variant-numeric: normal; font-variant-east-asian: normal; font-variant-alternates: normal; font-variant-position: normal; vertical-align: baseline; white-space-collapse: preserve;&quot;&gt;Amount_Paid&lt;/span&gt;&lt;/span&gt;" style="ellipse;whiteSpace=wrap;html=1;align=center;fontSize=11;" vertex="1" parent="1">
          <mxGeometry x="-206" y="374" width="100" height="40" as="geometry" />
        </mxCell>
        <mxCell id="MXyoK0AOpPa2jAWidQvX-75" value="" style="endArrow=none;html=1;rounded=0;entryX=0.596;entryY=0.007;entryDx=0;entryDy=0;exitX=0.397;exitY=1.06;exitDx=0;exitDy=0;exitPerimeter=0;entryPerimeter=0;" edge="1" parent="1" source="MXyoK0AOpPa2jAWidQvX-76" target="MXyoK0AOpPa2jAWidQvX-67">
          <mxGeometry relative="1" as="geometry">
            <mxPoint x="-251" y="1490" as="sourcePoint" />
            <mxPoint x="-71" y="1330" as="targetPoint" />
          </mxGeometry>
        </mxCell>
        <mxCell id="MXyoK0AOpPa2jAWidQvX-76" value="&lt;span id=&quot;docs-internal-guid-2bef0edd-7fff-62c7-2f93-ca8106787259&quot;&gt;&lt;span style=&quot;font-family: Arial, sans-serif; background-color: transparent; font-variant-numeric: normal; font-variant-east-asian: normal; font-variant-alternates: normal; font-variant-position: normal; vertical-align: baseline; white-space-collapse: preserve; font-size: 13px;&quot;&gt;Date&lt;/span&gt;&lt;/span&gt;" style="ellipse;whiteSpace=wrap;html=1;align=center;" vertex="1" parent="1">
          <mxGeometry x="90" y="144" width="96" height="36" as="geometry" />
        </mxCell>
        <mxCell id="MXyoK0AOpPa2jAWidQvX-77" value="&lt;span id=&quot;docs-internal-guid-33ce9c3b-7fff-7468-0be7-fa62e4904b93&quot;&gt;&lt;span style=&quot;font-family: Arial, sans-serif; background-color: transparent; font-variant-numeric: normal; font-variant-east-asian: normal; font-variant-alternates: normal; font-variant-position: normal; vertical-align: baseline; white-space-collapse: preserve;&quot;&gt;Payment_Type&lt;/span&gt;&lt;/span&gt;" style="ellipse;whiteSpace=wrap;html=1;align=center;" vertex="1" parent="1">
          <mxGeometry x="121" y="288" width="100" height="40" as="geometry" />
        </mxCell>
        <mxCell id="MXyoK0AOpPa2jAWidQvX-78" value="" style="endArrow=none;html=1;rounded=0;exitX=0.319;exitY=0.959;exitDx=0;exitDy=0;entryX=0.836;entryY=0.023;entryDx=0;entryDy=0;entryPerimeter=0;exitPerimeter=0;" edge="1" parent="1" source="MXyoK0AOpPa2jAWidQvX-77" target="MXyoK0AOpPa2jAWidQvX-67">
          <mxGeometry relative="1" as="geometry">
            <mxPoint x="-231" y="1428" as="sourcePoint" />
            <mxPoint x="-71" y="1428" as="targetPoint" />
          </mxGeometry>
        </mxCell>
        <mxCell id="MXyoK0AOpPa2jAWidQvX-81" value="Cash" style="ellipse;whiteSpace=wrap;html=1;align=center;" vertex="1" parent="1">
          <mxGeometry x="297" y="207" width="100" height="40" as="geometry" />
        </mxCell>
        <mxCell id="MXyoK0AOpPa2jAWidQvX-83" value="Check" style="ellipse;whiteSpace=wrap;html=1;align=center;" vertex="1" parent="1">
          <mxGeometry x="193" y="129.5" width="100" height="41.5" as="geometry" />
        </mxCell>
        <mxCell id="MXyoK0AOpPa2jAWidQvX-84" value="Credit_card" style="ellipse;whiteSpace=wrap;html=1;align=center;" vertex="1" parent="1">
          <mxGeometry x="297" y="151" width="100" height="40" as="geometry" />
        </mxCell>
        <mxCell id="MXyoK0AOpPa2jAWidQvX-85" value="" style="endArrow=none;html=1;rounded=0;entryX=1;entryY=0.5;entryDx=0;entryDy=0;exitX=0.013;exitY=0.665;exitDx=0;exitDy=0;exitPerimeter=0;" edge="1" parent="1" source="MXyoK0AOpPa2jAWidQvX-81" target="MXyoK0AOpPa2jAWidQvX-77">
          <mxGeometry relative="1" as="geometry">
            <mxPoint x="87" y="250" as="sourcePoint" />
            <mxPoint x="150" y="250" as="targetPoint" />
          </mxGeometry>
        </mxCell>
        <mxCell id="MXyoK0AOpPa2jAWidQvX-86" value="" style="endArrow=none;html=1;rounded=0;exitX=0.226;exitY=0.97;exitDx=0;exitDy=0;exitPerimeter=0;" edge="1" parent="1" source="MXyoK0AOpPa2jAWidQvX-83">
          <mxGeometry relative="1" as="geometry">
            <mxPoint x="87" y="250" as="sourcePoint" />
            <mxPoint x="171" y="288" as="targetPoint" />
          </mxGeometry>
        </mxCell>
        <mxCell id="MXyoK0AOpPa2jAWidQvX-87" value="" style="endArrow=none;html=1;rounded=0;exitX=0.024;exitY=0.72;exitDx=0;exitDy=0;entryX=0.747;entryY=0.134;entryDx=0;entryDy=0;entryPerimeter=0;exitPerimeter=0;" edge="1" parent="1" source="MXyoK0AOpPa2jAWidQvX-84" target="MXyoK0AOpPa2jAWidQvX-77">
          <mxGeometry relative="1" as="geometry">
            <mxPoint x="87" y="250" as="sourcePoint" />
            <mxPoint x="159" y="259" as="targetPoint" />
          </mxGeometry>
        </mxCell>
        <mxCell id="MXyoK0AOpPa2jAWidQvX-88" value="Pending" style="ellipse;whiteSpace=wrap;html=1;align=center;" vertex="1" parent="1">
          <mxGeometry x="-226" y="225" width="100" height="40" as="geometry" />
        </mxCell>
        <mxCell id="MXyoK0AOpPa2jAWidQvX-89" value="Paid" style="ellipse;whiteSpace=wrap;html=1;align=center;" vertex="1" parent="1">
          <mxGeometry x="-243" y="288" width="100" height="40" as="geometry" />
        </mxCell>
        <mxCell id="MXyoK0AOpPa2jAWidQvX-90" value="" style="endArrow=none;html=1;rounded=0;exitX=0.727;exitY=1.05;exitDx=0;exitDy=0;entryX=0;entryY=0.5;entryDx=0;entryDy=0;exitPerimeter=0;" edge="1" parent="1" source="MXyoK0AOpPa2jAWidQvX-88" target="qtXxFlRmkXZ8tWLBeB7B-3">
          <mxGeometry relative="1" as="geometry">
            <mxPoint x="87" y="250" as="sourcePoint" />
            <mxPoint x="247" y="250" as="targetPoint" />
          </mxGeometry>
        </mxCell>
        <mxCell id="MXyoK0AOpPa2jAWidQvX-91" value="" style="endArrow=none;html=1;rounded=0;exitX=0.5;exitY=1;exitDx=0;exitDy=0;entryX=0;entryY=0.5;entryDx=0;entryDy=0;" edge="1" parent="1" source="MXyoK0AOpPa2jAWidQvX-89" target="qtXxFlRmkXZ8tWLBeB7B-3">
          <mxGeometry relative="1" as="geometry">
            <mxPoint x="87" y="250" as="sourcePoint" />
            <mxPoint x="147" y="253" as="targetPoint" />
          </mxGeometry>
        </mxCell>
        <mxCell id="MXyoK0AOpPa2jAWidQvX-92" style="rounded=0;orthogonalLoop=1;jettySize=auto;html=1;entryX=1;entryY=0.5;entryDx=0;entryDy=0;endArrow=none;endFill=0;exitX=1;exitY=0.5;exitDx=0;exitDy=0;" edge="1" parent="1" source="MXyoK0AOpPa2jAWidQvX-94" target="MXyoK0AOpPa2jAWidQvX-95">
          <mxGeometry relative="1" as="geometry" />
        </mxCell>
        <mxCell id="MXyoK0AOpPa2jAWidQvX-93" style="rounded=0;orthogonalLoop=1;jettySize=auto;html=1;entryX=0.665;entryY=1.073;entryDx=0;entryDy=0;endArrow=none;endFill=0;exitX=0.908;exitY=0.078;exitDx=0;exitDy=0;exitPerimeter=0;entryPerimeter=0;" edge="1" parent="1" source="MXyoK0AOpPa2jAWidQvX-94" target="MXyoK0AOpPa2jAWidQvX-96">
          <mxGeometry relative="1" as="geometry" />
        </mxCell>
        <mxCell id="MXyoK0AOpPa2jAWidQvX-94" value="Procedure_Record" style="whiteSpace=wrap;html=1;align=center;" vertex="1" parent="1">
          <mxGeometry x="683" y="256" width="117" height="50" as="geometry" />
        </mxCell>
        <mxCell id="MXyoK0AOpPa2jAWidQvX-95" value="Procedure_Record_ID" style="ellipse;whiteSpace=wrap;html=1;align=center;fontStyle=4;" vertex="1" parent="1">
          <mxGeometry x="1035" y="225" width="134" height="40" as="geometry" />
        </mxCell>
        <mxCell id="MXyoK0AOpPa2jAWidQvX-96" value="&lt;span style=&quot;font-size: 12px;&quot;&gt;Appointment_ID(FK)&lt;/span&gt;" style="ellipse;whiteSpace=wrap;html=1;align=center;fontSize=11;" vertex="1" parent="1">
          <mxGeometry x="1005" y="126" width="125" height="40" as="geometry" />
        </mxCell>
        <mxCell id="MXyoK0AOpPa2jAWidQvX-97" value="" style="endArrow=none;html=1;rounded=0;entryX=0.5;entryY=0;entryDx=0;entryDy=0;exitX=0.667;exitY=1.017;exitDx=0;exitDy=0;exitPerimeter=0;" edge="1" parent="1" source="MXyoK0AOpPa2jAWidQvX-98" target="MXyoK0AOpPa2jAWidQvX-94">
          <mxGeometry relative="1" as="geometry">
            <mxPoint x="395.5" y="480" as="sourcePoint" />
            <mxPoint x="575.5" y="320" as="targetPoint" />
          </mxGeometry>
        </mxCell>
        <mxCell id="MXyoK0AOpPa2jAWidQvX-98" value="&lt;span id=&quot;docs-internal-guid-2bef0edd-7fff-62c7-2f93-ca8106787259&quot;&gt;&lt;span style=&quot;font-family: Arial, sans-serif; background-color: transparent; font-variant-numeric: normal; font-variant-east-asian: normal; font-variant-alternates: normal; font-variant-position: normal; vertical-align: baseline; white-space-collapse: preserve; font-size: 13px;&quot;&gt;Procedure_ID(FK)&lt;/span&gt;&lt;/span&gt;" style="ellipse;whiteSpace=wrap;html=1;align=center;" vertex="1" parent="1">
          <mxGeometry x="981" y="45" width="125" height="40" as="geometry" />
        </mxCell>
        <mxCell id="MXyoK0AOpPa2jAWidQvX-99" value="&lt;span id=&quot;docs-internal-guid-33ce9c3b-7fff-7468-0be7-fa62e4904b93&quot;&gt;&lt;span style=&quot;font-family: Arial, sans-serif; background-color: transparent; font-variant-numeric: normal; font-variant-east-asian: normal; font-variant-alternates: normal; font-variant-position: normal; vertical-align: baseline; white-space-collapse: preserve;&quot;&gt;Supervising_Dentist_ID(FK)&lt;/span&gt;&lt;/span&gt;" style="ellipse;whiteSpace=wrap;html=1;align=center;" vertex="1" parent="1">
          <mxGeometry x="828" y="18" width="170" height="40" as="geometry" />
        </mxCell>
        <mxCell id="MXyoK0AOpPa2jAWidQvX-100" value="" style="endArrow=none;html=1;rounded=0;exitX=0.798;exitY=0.971;exitDx=0;exitDy=0;entryX=0.25;entryY=0;entryDx=0;entryDy=0;exitPerimeter=0;" edge="1" parent="1" source="MXyoK0AOpPa2jAWidQvX-99" target="MXyoK0AOpPa2jAWidQvX-94">
          <mxGeometry relative="1" as="geometry">
            <mxPoint x="415.5" y="418" as="sourcePoint" />
            <mxPoint x="575.5" y="418" as="targetPoint" />
          </mxGeometry>
        </mxCell>
        <mxCell id="MXyoK0AOpPa2jAWidQvX-101" value="&lt;span id=&quot;docs-internal-guid-4fc2696f-7fff-ba4d-20a5-1b886365c0b5&quot;&gt;&lt;span style=&quot;font-family: Arial, sans-serif; background-color: transparent; font-variant-numeric: normal; font-variant-east-asian: normal; font-variant-alternates: normal; font-variant-position: normal; vertical-align: baseline; white-space-collapse: preserve; font-size: 11px;&quot;&gt;Units_Performed&lt;/span&gt;&lt;/span&gt;" style="ellipse;whiteSpace=wrap;html=1;align=center;" vertex="1" parent="1">
          <mxGeometry x="728" y="18" width="100" height="40" as="geometry" />
        </mxCell>
        <mxCell id="MXyoK0AOpPa2jAWidQvX-102" value="" style="endArrow=none;html=1;rounded=0;exitX=0.5;exitY=1;exitDx=0;exitDy=0;entryX=0.25;entryY=0;entryDx=0;entryDy=0;" edge="1" parent="1" source="MXyoK0AOpPa2jAWidQvX-101" target="MXyoK0AOpPa2jAWidQvX-94">
          <mxGeometry relative="1" as="geometry">
            <mxPoint x="352.5" y="454" as="sourcePoint" />
            <mxPoint x="666" y="234" as="targetPoint" />
          </mxGeometry>
        </mxCell>
        <mxCell id="WOUND8gSvGUn6GrFTX6V-2" value="Makes" style="rhombus;whiteSpace=wrap;html=1;" vertex="1" parent="1">
          <mxGeometry x="-45" y="644" width="80" height="80" as="geometry" />
        </mxCell>
        <mxCell id="WOUND8gSvGUn6GrFTX6V-5" value="" style="endArrow=none;html=1;rounded=0;exitX=0.43;exitY=0.1;exitDx=0;exitDy=0;exitPerimeter=0;" edge="1" parent="1" source="eQNqrHPPaoRz0vHPKy6t-2" target="WOUND8gSvGUn6GrFTX6V-6">
          <mxGeometry width="50" height="50" relative="1" as="geometry">
            <mxPoint x="-72" y="810" as="sourcePoint" />
            <mxPoint x="81" y="738" as="targetPoint" />
          </mxGeometry>
        </mxCell>
        <mxCell id="a_KAA3XXblzr9oYtN5gz-4" value="1" style="edgeLabel;html=1;align=center;verticalAlign=middle;resizable=0;points=[];" connectable="0" vertex="1" parent="WOUND8gSvGUn6GrFTX6V-5">
          <mxGeometry x="0.0029" y="-2" relative="1" as="geometry">
            <mxPoint y="-1" as="offset" />
          </mxGeometry>
        </mxCell>
        <mxCell id="WOUND8gSvGUn6GrFTX6V-6" value="Owns" style="rhombus;whiteSpace=wrap;html=1;" vertex="1" parent="1">
          <mxGeometry x="-196" y="669" width="80" height="80" as="geometry" />
        </mxCell>
        <mxCell id="WOUND8gSvGUn6GrFTX6V-7" value="" style="endArrow=none;html=1;rounded=0;exitX=0.275;exitY=0.162;exitDx=0;exitDy=0;entryX=0.86;entryY=0.925;entryDx=0;entryDy=0;entryPerimeter=0;exitPerimeter=0;shape=link;" edge="1" parent="1" source="WOUND8gSvGUn6GrFTX6V-6" target="eQNqrHPPaoRz0vHPKy6t-3">
          <mxGeometry width="50" height="50" relative="1" as="geometry">
            <mxPoint x="972" y="455" as="sourcePoint" />
            <mxPoint x="1022" y="405" as="targetPoint" />
          </mxGeometry>
        </mxCell>
        <mxCell id="a_KAA3XXblzr9oYtN5gz-3" value="1" style="edgeLabel;html=1;align=center;verticalAlign=middle;resizable=0;points=[];" connectable="0" vertex="1" parent="WOUND8gSvGUn6GrFTX6V-7">
          <mxGeometry x="0.1478" relative="1" as="geometry">
            <mxPoint as="offset" />
          </mxGeometry>
        </mxCell>
        <mxCell id="WOUND8gSvGUn6GrFTX6V-8" value="" style="endArrow=none;html=1;rounded=0;exitX=0.25;exitY=0;exitDx=0;exitDy=0;entryX=0.301;entryY=0.942;entryDx=0;entryDy=0;entryPerimeter=0;" edge="1" parent="1" source="eQNqrHPPaoRz0vHPKy6t-3" target="eQNqrHPPaoRz0vHPKy6t-8">
          <mxGeometry width="50" height="50" relative="1" as="geometry">
            <mxPoint x="493.5" y="316" as="sourcePoint" />
            <mxPoint x="543.5" y="266" as="targetPoint" />
          </mxGeometry>
        </mxCell>
        <mxCell id="QP6WqcFXJLlvUmGamy97-1" value="Employee" style="rounded=0;whiteSpace=wrap;html=1;" vertex="1" parent="1">
          <mxGeometry x="144" y="1609" width="120" height="60" as="geometry" />
        </mxCell>
        <mxCell id="WOUND8gSvGUn6GrFTX6V-10" value="" style="endArrow=none;html=1;rounded=0;exitX=1;exitY=0.5;exitDx=0;exitDy=0;" edge="1" parent="1" source="eQNqrHPPaoRz0vHPKy6t-2" target="WOUND8gSvGUn6GrFTX6V-11">
          <mxGeometry width="50" height="50" relative="1" as="geometry">
            <mxPoint x="972" y="455" as="sourcePoint" />
            <mxPoint x="171" y="810" as="targetPoint" />
          </mxGeometry>
        </mxCell>
        <mxCell id="UgrOtmMaG2IqU085E8YI-2" value="1" style="edgeLabel;html=1;align=center;verticalAlign=middle;resizable=0;points=[];" connectable="0" vertex="1" parent="WOUND8gSvGUn6GrFTX6V-10">
          <mxGeometry x="-0.0806" y="-3" relative="1" as="geometry">
            <mxPoint as="offset" />
          </mxGeometry>
        </mxCell>
        <mxCell id="QP6WqcFXJLlvUmGamy97-2" value="" style="endArrow=none;html=1;rounded=0;exitX=0.897;exitY=-0.021;exitDx=0;exitDy=0;exitPerimeter=0;" edge="1" parent="1" source="QP6WqcFXJLlvUmGamy97-1" target="QP6WqcFXJLlvUmGamy97-3">
          <mxGeometry width="50" height="50" relative="1" as="geometry">
            <mxPoint x="-36" y="1399" as="sourcePoint" />
            <mxPoint x="304" y="1529" as="targetPoint" />
          </mxGeometry>
        </mxCell>
        <mxCell id="WOUND8gSvGUn6GrFTX6V-11" value="Schedules" style="rhombus;whiteSpace=wrap;html=1;" vertex="1" parent="1">
          <mxGeometry x="80" y="774" width="80" height="80" as="geometry" />
        </mxCell>
        <mxCell id="QP6WqcFXJLlvUmGamy97-3" value="Job_Position" style="ellipse;whiteSpace=wrap;html=1;" vertex="1" parent="1">
          <mxGeometry x="334" y="1501" width="110" height="40" as="geometry" />
        </mxCell>
        <mxCell id="WOUND8gSvGUn6GrFTX6V-12" value="" style="endArrow=none;html=1;rounded=0;exitX=1;exitY=0;exitDx=0;exitDy=0;entryX=0;entryY=0.5;entryDx=0;entryDy=0;shape=link;" edge="1" parent="1" source="WOUND8gSvGUn6GrFTX6V-11" target="1EifoONmQTZ0GJib-Hqg-1">
          <mxGeometry width="50" height="50" relative="1" as="geometry">
            <mxPoint x="972" y="455" as="sourcePoint" />
            <mxPoint x="1022" y="405" as="targetPoint" />
          </mxGeometry>
        </mxCell>
        <mxCell id="UgrOtmMaG2IqU085E8YI-1" value="n" style="edgeLabel;html=1;align=center;verticalAlign=middle;resizable=0;points=[];" connectable="0" vertex="1" parent="WOUND8gSvGUn6GrFTX6V-12">
          <mxGeometry x="0.0279" y="-2" relative="1" as="geometry">
            <mxPoint as="offset" />
          </mxGeometry>
        </mxCell>
        <mxCell id="WOUND8gSvGUn6GrFTX6V-13" value="" style="endArrow=none;html=1;rounded=0;exitX=1;exitY=0.75;exitDx=0;exitDy=0;" edge="1" parent="1" source="eQNqrHPPaoRz0vHPKy6t-2" target="WOUND8gSvGUn6GrFTX6V-14">
          <mxGeometry width="50" height="50" relative="1" as="geometry">
            <mxPoint x="990" y="1085" as="sourcePoint" />
            <mxPoint x="153" y="936" as="targetPoint" />
          </mxGeometry>
        </mxCell>
        <mxCell id="UgrOtmMaG2IqU085E8YI-3" value="1" style="edgeLabel;html=1;align=center;verticalAlign=middle;resizable=0;points=[];" connectable="0" vertex="1" parent="WOUND8gSvGUn6GrFTX6V-13">
          <mxGeometry x="-0.1162" y="1" relative="1" as="geometry">
            <mxPoint as="offset" />
          </mxGeometry>
        </mxCell>
        <mxCell id="WOUND8gSvGUn6GrFTX6V-14" value="Has" style="rhombus;whiteSpace=wrap;html=1;" vertex="1" parent="1">
          <mxGeometry x="112.99999999999955" y="896" width="80" height="80" as="geometry" />
        </mxCell>
        <mxCell id="WOUND8gSvGUn6GrFTX6V-15" value="1" style="endArrow=none;html=1;rounded=0;exitX=1;exitY=1;exitDx=0;exitDy=0;entryX=0;entryY=0.5;entryDx=0;entryDy=0;shape=link;" edge="1" parent="1" source="WOUND8gSvGUn6GrFTX6V-14" target="1EifoONmQTZ0GJib-Hqg-18">
          <mxGeometry width="50" height="50" relative="1" as="geometry">
            <mxPoint x="990" y="1085" as="sourcePoint" />
            <mxPoint x="1040" y="1035" as="targetPoint" />
          </mxGeometry>
        </mxCell>
        <mxCell id="QP6WqcFXJLlvUmGamy97-8" value="" style="endArrow=none;html=1;rounded=0;entryX=1;entryY=0.5;entryDx=0;entryDy=0;exitX=0;exitY=0.5;exitDx=0;exitDy=0;" edge="1" parent="1" source="QP6WqcFXJLlvUmGamy97-9" target="QP6WqcFXJLlvUmGamy97-1">
          <mxGeometry width="50" height="50" relative="1" as="geometry">
            <mxPoint x="344" y="1689" as="sourcePoint" />
            <mxPoint x="14" y="1349" as="targetPoint" />
          </mxGeometry>
        </mxCell>
        <mxCell id="QP6WqcFXJLlvUmGamy97-9" value="Department_ID(FK)" style="ellipse;whiteSpace=wrap;html=1;" vertex="1" parent="1">
          <mxGeometry x="342.5" y="1600" width="135" height="60" as="geometry" />
        </mxCell>
        <mxCell id="QP6WqcFXJLlvUmGamy97-12" value="" style="endArrow=none;html=1;rounded=0;exitX=0.75;exitY=1;exitDx=0;exitDy=0;" edge="1" parent="1" source="QP6WqcFXJLlvUmGamy97-1" target="QP6WqcFXJLlvUmGamy97-13">
          <mxGeometry width="50" height="50" relative="1" as="geometry">
            <mxPoint x="-36" y="1399" as="sourcePoint" />
            <mxPoint x="304" y="1761.5" as="targetPoint" />
          </mxGeometry>
        </mxCell>
        <mxCell id="QP6WqcFXJLlvUmGamy97-13" value="Date_of_Hire" style="ellipse;whiteSpace=wrap;html=1;" vertex="1" parent="1">
          <mxGeometry x="337.5" y="1674" width="140" height="57.5" as="geometry" />
        </mxCell>
        <mxCell id="QP6WqcFXJLlvUmGamy97-16" value="" style="endArrow=none;html=1;rounded=0;exitX=0.25;exitY=1;exitDx=0;exitDy=0;" edge="1" parent="1" source="QP6WqcFXJLlvUmGamy97-1" target="QP6WqcFXJLlvUmGamy97-17">
          <mxGeometry width="50" height="50" relative="1" as="geometry">
            <mxPoint x="-36" y="1489" as="sourcePoint" />
            <mxPoint x="124" y="1809" as="targetPoint" />
          </mxGeometry>
        </mxCell>
        <mxCell id="QP6WqcFXJLlvUmGamy97-17" value="Access Level" style="ellipse;whiteSpace=wrap;html=1;" vertex="1" parent="1">
          <mxGeometry x="103.5" y="1705" width="120" height="60" as="geometry" />
        </mxCell>
        <mxCell id="WOUND8gSvGUn6GrFTX6V-21" value="" style="endArrow=none;html=1;rounded=0;exitX=1;exitY=0;exitDx=0;exitDy=0;entryX=0.5;entryY=1;entryDx=0;entryDy=0;" edge="1" parent="1" source="MXyoK0AOpPa2jAWidQvX-37" target="MXyoK0AOpPa2jAWidQvX-63">
          <mxGeometry width="50" height="50" relative="1" as="geometry">
            <mxPoint x="503" y="349" as="sourcePoint" />
            <mxPoint x="558" y="378" as="targetPoint" />
          </mxGeometry>
        </mxCell>
        <mxCell id="WOUND8gSvGUn6GrFTX6V-23" value="" style="endArrow=none;html=1;rounded=0;exitX=0;exitY=0;exitDx=0;exitDy=0;entryX=0.5;entryY=1;entryDx=0;entryDy=0;" edge="1" parent="1" source="MXyoK0AOpPa2jAWidQvX-37" target="MXyoK0AOpPa2jAWidQvX-62">
          <mxGeometry width="50" height="50" relative="1" as="geometry">
            <mxPoint x="503" y="349" as="sourcePoint" />
            <mxPoint x="553" y="299" as="targetPoint" />
          </mxGeometry>
        </mxCell>
        <mxCell id="WOUND8gSvGUn6GrFTX6V-24" value="" style="endArrow=none;html=1;rounded=0;exitX=0.5;exitY=0;exitDx=0;exitDy=0;entryX=0.5;entryY=1;entryDx=0;entryDy=0;" edge="1" parent="1" source="MXyoK0AOpPa2jAWidQvX-37" target="MXyoK0AOpPa2jAWidQvX-64">
          <mxGeometry width="50" height="50" relative="1" as="geometry">
            <mxPoint x="503" y="349" as="sourcePoint" />
            <mxPoint x="553" y="299" as="targetPoint" />
          </mxGeometry>
        </mxCell>
        <mxCell id="qtXxFlRmkXZ8tWLBeB7B-3" value="Payment_Status" style="ellipse;whiteSpace=wrap;html=1;align=center;" vertex="1" parent="1">
          <mxGeometry x="-117" y="306" width="100" height="40" as="geometry" />
        </mxCell>
        <mxCell id="qtXxFlRmkXZ8tWLBeB7B-1" value="" style="endArrow=none;html=1;rounded=0;entryX=0.143;entryY=0.03;entryDx=0;entryDy=0;exitX=0.5;exitY=1;exitDx=0;exitDy=0;entryPerimeter=0;" edge="1" parent="1" source="qtXxFlRmkXZ8tWLBeB7B-3" target="MXyoK0AOpPa2jAWidQvX-67">
          <mxGeometry relative="1" as="geometry">
            <mxPoint x="-252" y="1629" as="sourcePoint" />
            <mxPoint x="-113" y="1434" as="targetPoint" />
          </mxGeometry>
        </mxCell>
        <mxCell id="WOUND8gSvGUn6GrFTX6V-34" value="Contains" style="rhombus;whiteSpace=wrap;html=1;" vertex="1" parent="1">
          <mxGeometry x="517.5" y="536" width="80" height="80" as="geometry" />
        </mxCell>
        <mxCell id="QP6WqcFXJLlvUmGamy97-28" value="Person" style="rounded=0;whiteSpace=wrap;html=1;" vertex="1" parent="1">
          <mxGeometry x="-336" y="1286" width="120" height="60" as="geometry" />
        </mxCell>
        <mxCell id="QP6WqcFXJLlvUmGamy97-30" value="Email" style="ellipse;whiteSpace=wrap;html=1;" vertex="1" parent="1">
          <mxGeometry x="-518" y="1400" width="105" height="50" as="geometry" />
        </mxCell>
        <mxCell id="WOUND8gSvGUn6GrFTX6V-37" value="Attends" style="rhombus;whiteSpace=wrap;html=1;" vertex="1" parent="1">
          <mxGeometry x="212" y="1157" width="80" height="80" as="geometry" />
        </mxCell>
        <mxCell id="QP6WqcFXJLlvUmGamy97-31" value="" style="endArrow=none;html=1;rounded=0;exitX=0.101;exitY=1.039;exitDx=0;exitDy=0;exitPerimeter=0;" edge="1" parent="1" source="QP6WqcFXJLlvUmGamy97-28" target="QP6WqcFXJLlvUmGamy97-32">
          <mxGeometry width="50" height="50" relative="1" as="geometry">
            <mxPoint x="41" y="1189" as="sourcePoint" />
            <mxPoint x="161" y="1269" as="targetPoint" />
          </mxGeometry>
        </mxCell>
        <mxCell id="WOUND8gSvGUn6GrFTX6V-38" value="" style="endArrow=none;html=1;rounded=0;exitX=0.5;exitY=0;exitDx=0;exitDy=0;entryX=0;entryY=1;entryDx=0;entryDy=0;" edge="1" parent="1" source="WOUND8gSvGUn6GrFTX6V-37" target="1EifoONmQTZ0GJib-Hqg-1">
          <mxGeometry width="50" height="50" relative="1" as="geometry">
            <mxPoint x="945" y="1418" as="sourcePoint" />
            <mxPoint x="995" y="1368" as="targetPoint" />
          </mxGeometry>
        </mxCell>
        <mxCell id="95_iCEgRCtvbKQko1LSb-1" value="n" style="edgeLabel;html=1;align=center;verticalAlign=middle;resizable=0;points=[];" connectable="0" vertex="1" parent="WOUND8gSvGUn6GrFTX6V-38">
          <mxGeometry x="-0.4426" y="-3" relative="1" as="geometry">
            <mxPoint as="offset" />
          </mxGeometry>
        </mxCell>
        <mxCell id="QP6WqcFXJLlvUmGamy97-32" value="Address" style="ellipse;whiteSpace=wrap;html=1;" vertex="1" parent="1">
          <mxGeometry x="-526.75" y="1322" width="96" height="60" as="geometry" />
        </mxCell>
        <mxCell id="WOUND8gSvGUn6GrFTX6V-39" value="" style="endArrow=none;html=1;rounded=0;exitX=0;exitY=0.5;exitDx=0;exitDy=0;" edge="1" parent="1" source="QP6WqcFXJLlvUmGamy97-1" target="WOUND8gSvGUn6GrFTX6V-40">
          <mxGeometry width="50" height="50" relative="1" as="geometry">
            <mxPoint x="945" y="1418" as="sourcePoint" />
            <mxPoint x="-135" y="1674" as="targetPoint" />
          </mxGeometry>
        </mxCell>
        <mxCell id="95_iCEgRCtvbKQko1LSb-2" value="n" style="edgeLabel;html=1;align=center;verticalAlign=middle;resizable=0;points=[];" connectable="0" vertex="1" parent="WOUND8gSvGUn6GrFTX6V-39">
          <mxGeometry x="-0.0203" y="2" relative="1" as="geometry">
            <mxPoint as="offset" />
          </mxGeometry>
        </mxCell>
        <mxCell id="QP6WqcFXJLlvUmGamy97-33" value="" style="endArrow=none;html=1;rounded=0;exitX=0;exitY=0.75;exitDx=0;exitDy=0;" edge="1" parent="1" source="QP6WqcFXJLlvUmGamy97-28" target="QP6WqcFXJLlvUmGamy97-34">
          <mxGeometry width="50" height="50" relative="1" as="geometry">
            <mxPoint x="41" y="1189" as="sourcePoint" />
            <mxPoint x="241" y="1179" as="targetPoint" />
          </mxGeometry>
        </mxCell>
        <mxCell id="WOUND8gSvGUn6GrFTX6V-40" value="Belongs" style="rhombus;whiteSpace=wrap;html=1;" vertex="1" parent="1">
          <mxGeometry x="-175" y="1634" width="80" height="80" as="geometry" />
        </mxCell>
        <mxCell id="QP6WqcFXJLlvUmGamy97-34" value="Phone_Number" style="ellipse;whiteSpace=wrap;html=1;" vertex="1" parent="1">
          <mxGeometry x="-535.25" y="1242" width="104.5" height="70" as="geometry" />
        </mxCell>
        <mxCell id="WOUND8gSvGUn6GrFTX6V-41" value="" style="endArrow=none;html=1;rounded=0;exitX=0;exitY=0.5;exitDx=0;exitDy=0;entryX=1;entryY=0;entryDx=0;entryDy=0;" edge="1" parent="1" source="WOUND8gSvGUn6GrFTX6V-40" target="1EifoONmQTZ0GJib-Hqg-31">
          <mxGeometry width="50" height="50" relative="1" as="geometry">
            <mxPoint x="945" y="1418" as="sourcePoint" />
            <mxPoint x="995" y="1368" as="targetPoint" />
          </mxGeometry>
        </mxCell>
        <mxCell id="95_iCEgRCtvbKQko1LSb-3" value="m" style="edgeLabel;html=1;align=center;verticalAlign=middle;resizable=0;points=[];" connectable="0" vertex="1" parent="WOUND8gSvGUn6GrFTX6V-41">
          <mxGeometry x="-0.2295" y="-2" relative="1" as="geometry">
            <mxPoint as="offset" />
          </mxGeometry>
        </mxCell>
        <mxCell id="QP6WqcFXJLlvUmGamy97-38" value="" style="ellipse;whiteSpace=wrap;html=1;aspect=fixed;" vertex="1" parent="1">
          <mxGeometry x="-36" y="1261" width="80" height="80" as="geometry" />
        </mxCell>
        <mxCell id="WOUND8gSvGUn6GrFTX6V-36" value="" style="endArrow=none;html=1;rounded=0;exitX=0.25;exitY=0;exitDx=0;exitDy=0;shape=link;" edge="1" parent="1" source="QP6WqcFXJLlvUmGamy97-1" target="WOUND8gSvGUn6GrFTX6V-37">
          <mxGeometry width="50" height="50" relative="1" as="geometry">
            <mxPoint x="945" y="1418" as="sourcePoint" />
            <mxPoint x="252" y="1197" as="targetPoint" />
          </mxGeometry>
        </mxCell>
        <mxCell id="l-jUN_9G81EnEZJfgO7P-1" value="m" style="edgeLabel;html=1;align=center;verticalAlign=middle;resizable=0;points=[];" connectable="0" vertex="1" parent="WOUND8gSvGUn6GrFTX6V-36">
          <mxGeometry x="-0.0017" y="1" relative="1" as="geometry">
            <mxPoint as="offset" />
          </mxGeometry>
        </mxCell>
        <mxCell id="WOUND8gSvGUn6GrFTX6V-45" value="" style="endArrow=none;html=1;rounded=0;exitX=0.25;exitY=0;exitDx=0;exitDy=0;entryX=0;entryY=1;entryDx=0;entryDy=0;" edge="1" parent="1" source="1EifoONmQTZ0GJib-Hqg-1" target="WOUND8gSvGUn6GrFTX6V-34">
          <mxGeometry width="50" height="50" relative="1" as="geometry">
            <mxPoint x="756" y="779" as="sourcePoint" />
            <mxPoint x="806" y="729" as="targetPoint" />
          </mxGeometry>
        </mxCell>
        <mxCell id="I6vkuFnv4OatuE5zP6do-2" value="1" style="edgeLabel;html=1;align=center;verticalAlign=middle;resizable=0;points=[];" connectable="0" vertex="1" parent="WOUND8gSvGUn6GrFTX6V-45">
          <mxGeometry x="-0.3173" y="-3" relative="1" as="geometry">
            <mxPoint as="offset" />
          </mxGeometry>
        </mxCell>
        <mxCell id="WOUND8gSvGUn6GrFTX6V-46" value="" style="endArrow=none;html=1;rounded=0;exitX=1;exitY=0;exitDx=0;exitDy=0;shape=link;entryX=0.5;entryY=1;entryDx=0;entryDy=0;" edge="1" parent="1" source="WOUND8gSvGUn6GrFTX6V-34" target="MXyoK0AOpPa2jAWidQvX-94">
          <mxGeometry width="50" height="50" relative="1" as="geometry">
            <mxPoint x="756" y="779" as="sourcePoint" />
            <mxPoint x="702" y="513" as="targetPoint" />
          </mxGeometry>
        </mxCell>
        <mxCell id="I6vkuFnv4OatuE5zP6do-3" value="1" style="edgeLabel;html=1;align=center;verticalAlign=middle;resizable=0;points=[];" connectable="0" vertex="1" parent="WOUND8gSvGUn6GrFTX6V-46">
          <mxGeometry x="0.0488" relative="1" as="geometry">
            <mxPoint as="offset" />
          </mxGeometry>
        </mxCell>
        <mxCell id="WOUND8gSvGUn6GrFTX6V-47" value="" style="endArrow=none;html=1;rounded=0;exitX=0.25;exitY=0;exitDx=0;exitDy=0;" edge="1" parent="1" source="eQNqrHPPaoRz0vHPKy6t-4" target="WOUND8gSvGUn6GrFTX6V-48">
          <mxGeometry width="50" height="50" relative="1" as="geometry">
            <mxPoint x="756" y="545" as="sourcePoint" />
            <mxPoint x="522" y="486" as="targetPoint" />
          </mxGeometry>
        </mxCell>
        <mxCell id="ZAqJHx_h_yLKjSMheZNM-15" value="n" style="edgeLabel;html=1;align=center;verticalAlign=middle;resizable=0;points=[];" connectable="0" vertex="1" parent="WOUND8gSvGUn6GrFTX6V-47">
          <mxGeometry x="0.0016" y="4" relative="1" as="geometry">
            <mxPoint as="offset" />
          </mxGeometry>
        </mxCell>
        <mxCell id="WOUND8gSvGUn6GrFTX6V-48" value="Has" style="rhombus;whiteSpace=wrap;html=1;" vertex="1" parent="1">
          <mxGeometry x="742.5" y="348" width="67" height="67" as="geometry" />
        </mxCell>
        <mxCell id="WOUND8gSvGUn6GrFTX6V-49" value="" style="endArrow=none;html=1;rounded=0;exitX=1;exitY=0;exitDx=0;exitDy=0;entryX=0.834;entryY=1.078;entryDx=0;entryDy=0;entryPerimeter=0;" edge="1" parent="1" source="WOUND8gSvGUn6GrFTX6V-48" target="MXyoK0AOpPa2jAWidQvX-94">
          <mxGeometry width="50" height="50" relative="1" as="geometry">
            <mxPoint x="756" y="545" as="sourcePoint" />
            <mxPoint x="837" y="315" as="targetPoint" />
          </mxGeometry>
        </mxCell>
        <mxCell id="ZAqJHx_h_yLKjSMheZNM-16" value="1" style="edgeLabel;html=1;align=center;verticalAlign=middle;resizable=0;points=[];" connectable="0" vertex="1" parent="WOUND8gSvGUn6GrFTX6V-49">
          <mxGeometry x="-0.1874" y="1" relative="1" as="geometry">
            <mxPoint x="-1" as="offset" />
          </mxGeometry>
        </mxCell>
        <mxCell id="QP6WqcFXJLlvUmGamy97-47" value="Licensure" style="rounded=0;whiteSpace=wrap;html=1;" vertex="1" parent="1">
          <mxGeometry x="622.5" y="1395" width="120" height="60" as="geometry" />
        </mxCell>
        <mxCell id="QP6WqcFXJLlvUmGamy97-48" value="" style="endArrow=none;html=1;rounded=0;exitX=1;exitY=0.5;exitDx=0;exitDy=0;" edge="1" parent="1" source="QP6WqcFXJLlvUmGamy97-47" target="QP6WqcFXJLlvUmGamy97-49">
          <mxGeometry width="50" height="50" relative="1" as="geometry">
            <mxPoint x="502.5" y="1335" as="sourcePoint" />
            <mxPoint x="862.5" y="1445" as="targetPoint" />
          </mxGeometry>
        </mxCell>
        <mxCell id="QP6WqcFXJLlvUmGamy97-49" value="Licensure_Type" style="ellipse;whiteSpace=wrap;html=1;" vertex="1" parent="1">
          <mxGeometry x="828" y="1419" width="140" height="60" as="geometry" />
        </mxCell>
        <mxCell id="QP6WqcFXJLlvUmGamy97-50" value="" style="endArrow=none;html=1;rounded=0;entryX=1;entryY=1;entryDx=0;entryDy=0;" edge="1" parent="1" source="QP6WqcFXJLlvUmGamy97-51" target="QP6WqcFXJLlvUmGamy97-47">
          <mxGeometry width="50" height="50" relative="1" as="geometry">
            <mxPoint x="812.5" y="1505" as="sourcePoint" />
            <mxPoint x="552.5" y="1285" as="targetPoint" />
          </mxGeometry>
        </mxCell>
        <mxCell id="QP6WqcFXJLlvUmGamy97-51" value="&lt;u&gt;Licensure_ID&lt;/u&gt;" style="ellipse;whiteSpace=wrap;html=1;" vertex="1" parent="1">
          <mxGeometry x="855" y="1515" width="150" height="70" as="geometry" />
        </mxCell>
        <mxCell id="QP6WqcFXJLlvUmGamy97-52" value="" style="endArrow=none;html=1;rounded=0;entryX=0.75;entryY=1;entryDx=0;entryDy=0;exitX=0.5;exitY=0;exitDx=0;exitDy=0;" edge="1" parent="1" source="QP6WqcFXJLlvUmGamy97-53" target="QP6WqcFXJLlvUmGamy97-47">
          <mxGeometry width="50" height="50" relative="1" as="geometry">
            <mxPoint x="832.5" y="1585" as="sourcePoint" />
            <mxPoint x="552.5" y="1285" as="targetPoint" />
          </mxGeometry>
        </mxCell>
        <mxCell id="QP6WqcFXJLlvUmGamy97-53" value="Employee_ID(FK)" style="ellipse;whiteSpace=wrap;html=1;" vertex="1" parent="1">
          <mxGeometry x="817.5" y="1620" width="135" height="60" as="geometry" />
        </mxCell>
        <mxCell id="QP6WqcFXJLlvUmGamy97-54" value="" style="endArrow=none;html=1;rounded=0;entryX=0.595;entryY=0.99;entryDx=0;entryDy=0;entryPerimeter=0;exitX=0.5;exitY=0;exitDx=0;exitDy=0;" edge="1" parent="1" source="QP6WqcFXJLlvUmGamy97-55" target="QP6WqcFXJLlvUmGamy97-47">
          <mxGeometry width="50" height="50" relative="1" as="geometry">
            <mxPoint x="782.5" y="1635" as="sourcePoint" />
            <mxPoint x="552.5" y="1285" as="targetPoint" />
          </mxGeometry>
        </mxCell>
        <mxCell id="QP6WqcFXJLlvUmGamy97-55" value="Issuing_Authority" style="ellipse;whiteSpace=wrap;html=1;" vertex="1" parent="1">
          <mxGeometry x="680" y="1625" width="120" height="80" as="geometry" />
        </mxCell>
        <mxCell id="QP6WqcFXJLlvUmGamy97-56" value="" style="endArrow=none;html=1;rounded=0;entryX=0.5;entryY=1;entryDx=0;entryDy=0;exitX=0.5;exitY=0;exitDx=0;exitDy=0;" edge="1" parent="1" source="QP6WqcFXJLlvUmGamy97-57" target="QP6WqcFXJLlvUmGamy97-47">
          <mxGeometry width="50" height="50" relative="1" as="geometry">
            <mxPoint x="722.5" y="1605" as="sourcePoint" />
            <mxPoint x="672.5" y="1465" as="targetPoint" />
          </mxGeometry>
        </mxCell>
        <mxCell id="QP6WqcFXJLlvUmGamy97-57" value="Expiration_Date" style="ellipse;whiteSpace=wrap;html=1;" vertex="1" parent="1">
          <mxGeometry x="567.5" y="1580" width="120" height="80" as="geometry" />
        </mxCell>
        <mxCell id="WOUND8gSvGUn6GrFTX6V-50" value="" style="endArrow=none;html=1;rounded=0;exitX=1;exitY=0.5;exitDx=0;exitDy=0;entryX=0;entryY=0.5;entryDx=0;entryDy=0;" edge="1" parent="1" source="QP6WqcFXJLlvUmGamy97-28" target="QP6WqcFXJLlvUmGamy97-38">
          <mxGeometry width="50" height="50" relative="1" as="geometry">
            <mxPoint x="1035" y="1202" as="sourcePoint" />
            <mxPoint x="1085" y="1152" as="targetPoint" />
          </mxGeometry>
        </mxCell>
        <mxCell id="WOUND8gSvGUn6GrFTX6V-51" value="" style="endArrow=none;html=1;rounded=0;exitX=0.25;exitY=1;exitDx=0;exitDy=0;entryX=0.5;entryY=0;entryDx=0;entryDy=0;" edge="1" parent="1" source="QP6WqcFXJLlvUmGamy97-28" target="QP6WqcFXJLlvUmGamy97-30">
          <mxGeometry width="50" height="50" relative="1" as="geometry">
            <mxPoint x="1035" y="1202" as="sourcePoint" />
            <mxPoint x="1085" y="1152" as="targetPoint" />
          </mxGeometry>
        </mxCell>
        <mxCell id="WOUND8gSvGUn6GrFTX6V-52" value="" style="endArrow=none;html=1;rounded=0;exitX=1;exitY=0.5;exitDx=0;exitDy=0;entryX=0.75;entryY=1;entryDx=0;entryDy=0;exitPerimeter=0;" edge="1" parent="1" target="eQNqrHPPaoRz0vHPKy6t-2">
          <mxGeometry width="50" height="50" relative="1" as="geometry">
            <mxPoint x="-37" y="1039" as="sourcePoint" />
            <mxPoint x="1085" y="1152" as="targetPoint" />
          </mxGeometry>
        </mxCell>
        <mxCell id="WOUND8gSvGUn6GrFTX6V-53" value="" style="endArrow=none;html=1;rounded=0;exitX=1;exitY=0.5;exitDx=0;exitDy=0;entryX=0;entryY=0;entryDx=0;entryDy=0;exitPerimeter=0;" edge="1" parent="1" target="QP6WqcFXJLlvUmGamy97-1">
          <mxGeometry width="50" height="50" relative="1" as="geometry">
            <mxPoint x="66.5" y="1455.3301270189222" as="sourcePoint" />
            <mxPoint x="1085" y="1152" as="targetPoint" />
          </mxGeometry>
        </mxCell>
        <mxCell id="WOUND8gSvGUn6GrFTX6V-54" value="" style="endArrow=none;html=1;rounded=0;exitX=0.25;exitY=0;exitDx=0;exitDy=0;" edge="1" parent="1" source="QP6WqcFXJLlvUmGamy97-1" target="WOUND8gSvGUn6GrFTX6V-55">
          <mxGeometry width="50" height="50" relative="1" as="geometry">
            <mxPoint x="387" y="1580" as="sourcePoint" />
            <mxPoint x="315" y="1377" as="targetPoint" />
          </mxGeometry>
        </mxCell>
        <mxCell id="ZAqJHx_h_yLKjSMheZNM-12" value="n" style="edgeLabel;html=1;align=center;verticalAlign=middle;resizable=0;points=[];" connectable="0" vertex="1" parent="WOUND8gSvGUn6GrFTX6V-54">
          <mxGeometry x="0.2261" y="2" relative="1" as="geometry">
            <mxPoint x="1" y="-1" as="offset" />
          </mxGeometry>
        </mxCell>
        <mxCell id="WOUND8gSvGUn6GrFTX6V-55" value="Holds" style="rhombus;whiteSpace=wrap;html=1;" vertex="1" parent="1">
          <mxGeometry x="334" y="1351" width="80" height="80" as="geometry" />
        </mxCell>
        <mxCell id="WOUND8gSvGUn6GrFTX6V-56" value="" style="endArrow=none;html=1;rounded=0;exitX=1;exitY=0;exitDx=0;exitDy=0;entryX=0;entryY=0.5;entryDx=0;entryDy=0;shape=link;" edge="1" parent="1" source="WOUND8gSvGUn6GrFTX6V-55" target="QP6WqcFXJLlvUmGamy97-47">
          <mxGeometry width="50" height="50" relative="1" as="geometry">
            <mxPoint x="783" y="1580" as="sourcePoint" />
            <mxPoint x="833" y="1530" as="targetPoint" />
          </mxGeometry>
        </mxCell>
        <mxCell id="ZAqJHx_h_yLKjSMheZNM-13" value="m" style="edgeLabel;html=1;align=center;verticalAlign=middle;resizable=0;points=[];" connectable="0" vertex="1" parent="WOUND8gSvGUn6GrFTX6V-56">
          <mxGeometry x="0.1449" y="7" relative="1" as="geometry">
            <mxPoint as="offset" />
          </mxGeometry>
        </mxCell>
        <mxCell id="WOUND8gSvGUn6GrFTX6V-57" value="" style="endArrow=none;html=1;rounded=0;exitX=0;exitY=1;exitDx=0;exitDy=0;" edge="1" parent="1" source="eQNqrHPPaoRz0vHPKy6t-2" target="WOUND8gSvGUn6GrFTX6V-58">
          <mxGeometry width="50" height="50" relative="1" as="geometry">
            <mxPoint x="783" y="1229" as="sourcePoint" />
            <mxPoint x="-207" y="1152" as="targetPoint" />
          </mxGeometry>
        </mxCell>
        <mxCell id="I6vkuFnv4OatuE5zP6do-1" value="1" style="edgeLabel;html=1;align=center;verticalAlign=middle;resizable=0;points=[];" connectable="0" vertex="1" parent="WOUND8gSvGUn6GrFTX6V-57">
          <mxGeometry x="0.6159" y="2" relative="1" as="geometry">
            <mxPoint as="offset" />
          </mxGeometry>
        </mxCell>
        <mxCell id="WOUND8gSvGUn6GrFTX6V-58" value="Provides" style="rhombus;whiteSpace=wrap;html=1;" vertex="1" parent="1">
          <mxGeometry x="-306" y="1136" width="80" height="80" as="geometry" />
        </mxCell>
        <mxCell id="WOUND8gSvGUn6GrFTX6V-59" value="1" style="endArrow=none;html=1;rounded=0;exitX=0;exitY=0.5;exitDx=0;exitDy=0;shape=link;" edge="1" parent="1" source="WOUND8gSvGUn6GrFTX6V-58" target="WOUND8gSvGUn6GrFTX6V-60">
          <mxGeometry width="50" height="50" relative="1" as="geometry">
            <mxPoint x="783" y="1229" as="sourcePoint" />
            <mxPoint x="-468" y="1143" as="targetPoint" />
          </mxGeometry>
        </mxCell>
        <mxCell id="WOUND8gSvGUn6GrFTX6V-60" value="Payment_Info" style="rounded=0;whiteSpace=wrap;html=1;" vertex="1" parent="1">
          <mxGeometry x="-528" y="1113" width="120" height="60" as="geometry" />
        </mxCell>
        <mxCell id="WOUND8gSvGUn6GrFTX6V-61" value="" style="endArrow=none;html=1;rounded=0;exitX=0.5;exitY=0;exitDx=0;exitDy=0;" edge="1" parent="1" source="WOUND8gSvGUn6GrFTX6V-60" target="WOUND8gSvGUn6GrFTX6V-62">
          <mxGeometry width="50" height="50" relative="1" as="geometry">
            <mxPoint x="783" y="1229" as="sourcePoint" />
            <mxPoint x="-486" y="1008" as="targetPoint" />
          </mxGeometry>
        </mxCell>
        <mxCell id="WOUND8gSvGUn6GrFTX6V-62" value="Payment_Info_ID" style="ellipse;whiteSpace=wrap;html=1;fontStyle=4" vertex="1" parent="1">
          <mxGeometry x="-546" y="968" width="105" height="49" as="geometry" />
        </mxCell>
        <mxCell id="ZAqJHx_h_yLKjSMheZNM-1" value="" style="endArrow=none;html=1;rounded=0;exitX=0.25;exitY=0;exitDx=0;exitDy=0;" edge="1" parent="1" source="WOUND8gSvGUn6GrFTX6V-60" target="ZAqJHx_h_yLKjSMheZNM-2">
          <mxGeometry width="50" height="50" relative="1" as="geometry">
            <mxPoint x="162" y="1049" as="sourcePoint" />
            <mxPoint x="-603" y="1053" as="targetPoint" />
          </mxGeometry>
        </mxCell>
        <mxCell id="ZAqJHx_h_yLKjSMheZNM-2" value="Card_Number" style="ellipse;whiteSpace=wrap;html=1;" vertex="1" parent="1">
          <mxGeometry x="-648" y="1013" width="105" height="49" as="geometry" />
        </mxCell>
        <mxCell id="ZAqJHx_h_yLKjSMheZNM-3" value="" style="endArrow=none;html=1;rounded=0;exitX=0;exitY=0.25;exitDx=0;exitDy=0;" edge="1" parent="1" source="WOUND8gSvGUn6GrFTX6V-60" target="ZAqJHx_h_yLKjSMheZNM-4">
          <mxGeometry width="50" height="50" relative="1" as="geometry">
            <mxPoint x="162" y="1049" as="sourcePoint" />
            <mxPoint x="-639" y="1089" as="targetPoint" />
          </mxGeometry>
        </mxCell>
        <mxCell id="ZAqJHx_h_yLKjSMheZNM-4" value="Security_Code" style="ellipse;whiteSpace=wrap;html=1;" vertex="1" parent="1">
          <mxGeometry x="-720" y="1064" width="104" height="58" as="geometry" />
        </mxCell>
        <mxCell id="ZAqJHx_h_yLKjSMheZNM-5" value="" style="endArrow=none;html=1;rounded=0;exitX=0.75;exitY=0;exitDx=0;exitDy=0;" edge="1" parent="1" source="WOUND8gSvGUn6GrFTX6V-60" target="ZAqJHx_h_yLKjSMheZNM-6">
          <mxGeometry width="50" height="50" relative="1" as="geometry">
            <mxPoint x="162" y="1049" as="sourcePoint" />
            <mxPoint x="-423" y="954" as="targetPoint" />
          </mxGeometry>
        </mxCell>
        <mxCell id="ZAqJHx_h_yLKjSMheZNM-6" value="Expiration_Date" style="ellipse;whiteSpace=wrap;html=1;" vertex="1" parent="1">
          <mxGeometry x="-481" y="864" width="103" height="54" as="geometry" />
        </mxCell>
        <mxCell id="ZAqJHx_h_yLKjSMheZNM-7" value="" style="endArrow=none;html=1;rounded=0;exitX=0.5;exitY=0;exitDx=0;exitDy=0;" edge="1" parent="1" source="WOUND8gSvGUn6GrFTX6V-60" target="ZAqJHx_h_yLKjSMheZNM-8">
          <mxGeometry width="50" height="50" relative="1" as="geometry">
            <mxPoint x="162" y="1049" as="sourcePoint" />
            <mxPoint x="-585" y="963" as="targetPoint" />
          </mxGeometry>
        </mxCell>
        <mxCell id="ZAqJHx_h_yLKjSMheZNM-8" value="Patient_ID(FK)" style="ellipse;whiteSpace=wrap;html=1;" vertex="1" parent="1">
          <mxGeometry x="-657" y="900" width="102" height="59" as="geometry" />
        </mxCell>
        <mxCell id="ZAqJHx_h_yLKjSMheZNM-10" value="Patient_Info_Id(FK)" style="ellipse;whiteSpace=wrap;html=1;" vertex="1" parent="1">
          <mxGeometry x="-238" y="444.5" width="132" height="70" as="geometry" />
        </mxCell>
        <mxCell id="ja1AtRURxypQoOAft1Ci-2" value="" style="endArrow=none;html=1;rounded=0;exitX=0.5;exitY=1;exitDx=0;exitDy=0;entryX=1;entryY=0.5;entryDx=0;entryDy=0;entryPerimeter=0;" edge="1" parent="1" source="QP6WqcFXJLlvUmGamy97-38">
          <mxGeometry width="50" height="50" relative="1" as="geometry">
            <mxPoint x="4" y="1341" as="sourcePoint" />
            <mxPoint x="66.5" y="1455.3301270189222" as="targetPoint" />
          </mxGeometry>
        </mxCell>
        <mxCell id="ja1AtRURxypQoOAft1Ci-4" value="" style="endArrow=none;html=1;rounded=0;exitX=0;exitY=0;exitDx=0;exitDy=0;entryX=1;entryY=0.5;entryDx=0;entryDy=0;entryPerimeter=0;" edge="1" parent="1" source="QP6WqcFXJLlvUmGamy97-38">
          <mxGeometry width="50" height="50" relative="1" as="geometry">
            <mxPoint x="-24" y="1273" as="sourcePoint" />
            <mxPoint x="-37" y="1039" as="targetPoint" />
          </mxGeometry>
        </mxCell>
        <mxCell id="ZIw8MbNl8f4cPszTV2ZU-1" value="o" style="ellipse;whiteSpace=wrap;html=1;aspect=fixed;" vertex="1" parent="1">
          <mxGeometry x="-16" y="1281" width="41" height="41" as="geometry" />
        </mxCell>
        <mxCell id="V5ZgbC7ZhftTMXogDRUc-1" value="" style="endArrow=none;html=1;rounded=0;exitX=1;exitY=0.75;exitDx=0;exitDy=0;" edge="1" parent="1" source="eQNqrHPPaoRz0vHPKy6t-3" target="V5ZgbC7ZhftTMXogDRUc-2">
          <mxGeometry width="50" height="50" relative="1" as="geometry">
            <mxPoint x="-27" y="523" as="sourcePoint" />
            <mxPoint x="-135" y="464" as="targetPoint" />
          </mxGeometry>
        </mxCell>
        <mxCell id="V5ZgbC7ZhftTMXogDRUc-2" value="Phone" style="ellipse;whiteSpace=wrap;html=1;" vertex="1" parent="1">
          <mxGeometry x="-397.5" y="402" width="111.5" height="53" as="geometry" />
        </mxCell>
        <mxCell id="V5ZgbC7ZhftTMXogDRUc-3" value="" style="endArrow=none;html=1;rounded=0;exitX=0;exitY=0.5;exitDx=0;exitDy=0;" edge="1" parent="1" source="eQNqrHPPaoRz0vHPKy6t-3" target="V5ZgbC7ZhftTMXogDRUc-4">
          <mxGeometry width="50" height="50" relative="1" as="geometry">
            <mxPoint x="-27" y="523" as="sourcePoint" />
            <mxPoint x="-414" y="392" as="targetPoint" />
          </mxGeometry>
        </mxCell>
        <mxCell id="V5ZgbC7ZhftTMXogDRUc-4" value="Email" style="ellipse;whiteSpace=wrap;html=1;" vertex="1" parent="1">
          <mxGeometry x="-711" y="388" width="101" height="69" as="geometry" />
        </mxCell>
        <mxCell id="Cgz4BIFyOQ0AUZNVlL8T-1" value="" style="endArrow=none;html=1;rounded=0;exitX=0.25;exitY=1;exitDx=0;exitDy=0;entryX=0.909;entryY=0.171;entryDx=0;entryDy=0;entryPerimeter=0;" edge="1" parent="1" source="MXyoK0AOpPa2jAWidQvX-67" target="ZAqJHx_h_yLKjSMheZNM-10">
          <mxGeometry width="50" height="50" relative="1" as="geometry">
            <mxPoint x="126" y="545" as="sourcePoint" />
            <mxPoint x="176" y="495" as="targetPoint" />
          </mxGeometry>
        </mxCell>
        <mxCell id="Cgz4BIFyOQ0AUZNVlL8T-2" value="" style="endArrow=none;html=1;rounded=0;exitX=0.75;exitY=0;exitDx=0;exitDy=0;entryX=0;entryY=1;entryDx=0;entryDy=0;" edge="1" parent="1" source="eQNqrHPPaoRz0vHPKy6t-2" target="WOUND8gSvGUn6GrFTX6V-2">
          <mxGeometry width="50" height="50" relative="1" as="geometry">
            <mxPoint x="18" y="738" as="sourcePoint" />
            <mxPoint x="68" y="597" as="targetPoint" />
          </mxGeometry>
        </mxCell>
        <mxCell id="Cgz4BIFyOQ0AUZNVlL8T-3" value="1" style="edgeLabel;html=1;align=center;verticalAlign=middle;resizable=0;points=[];" connectable="0" vertex="1" parent="Cgz4BIFyOQ0AUZNVlL8T-2">
          <mxGeometry x="0.0856" y="1" relative="1" as="geometry">
            <mxPoint as="offset" />
          </mxGeometry>
        </mxCell>
        <mxCell id="Cgz4BIFyOQ0AUZNVlL8T-4" value="" style="endArrow=none;html=1;rounded=0;exitX=0.5;exitY=0;exitDx=0;exitDy=0;shape=link;entryX=0.5;entryY=1;entryDx=0;entryDy=0;" edge="1" parent="1" source="WOUND8gSvGUn6GrFTX6V-2" target="MXyoK0AOpPa2jAWidQvX-67">
          <mxGeometry width="50" height="50" relative="1" as="geometry">
            <mxPoint x="-5" y="724" as="sourcePoint" />
            <mxPoint x="144" y="423" as="targetPoint" />
          </mxGeometry>
        </mxCell>
        <mxCell id="Cgz4BIFyOQ0AUZNVlL8T-5" value="n" style="edgeLabel;html=1;align=center;verticalAlign=middle;resizable=0;points=[];" connectable="0" vertex="1" parent="Cgz4BIFyOQ0AUZNVlL8T-4">
          <mxGeometry x="-0.0005" y="1" relative="1" as="geometry">
            <mxPoint as="offset" />
          </mxGeometry>
        </mxCell>
        <mxCell id="0LSry7-kuJGnTa4c1hF4-1" value="" style="endArrow=none;html=1;rounded=0;exitX=0;exitY=0.5;exitDx=0;exitDy=0;entryX=1;entryY=1;entryDx=0;entryDy=0;" edge="1" parent="1" source="MXyoK0AOpPa2jAWidQvX-31" target="0LSry7-kuJGnTa4c1hF4-2">
          <mxGeometry width="50" height="50" relative="1" as="geometry">
            <mxPoint x="270" y="338" as="sourcePoint" />
            <mxPoint x="243" y="459" as="targetPoint" />
          </mxGeometry>
        </mxCell>
        <mxCell id="0LSry7-kuJGnTa4c1hF4-5" value="1" style="edgeLabel;html=1;align=center;verticalAlign=middle;resizable=0;points=[];" vertex="1" connectable="0" parent="0LSry7-kuJGnTa4c1hF4-1">
          <mxGeometry x="0.13" y="-1" relative="1" as="geometry">
            <mxPoint as="offset" />
          </mxGeometry>
        </mxCell>
        <mxCell id="DyScq_LiReuTui2nNU70-2" value="Create" style="rhombus;whiteSpace=wrap;html=1;" vertex="1" parent="1">
          <mxGeometry x="377.5" y="570" width="80" height="80" as="geometry" />
        </mxCell>
        <mxCell id="0LSry7-kuJGnTa4c1hF4-2" value="Pays" style="rhombus;whiteSpace=wrap;html=1;" vertex="1" parent="1">
          <mxGeometry x="106" y="377" width="80" height="80" as="geometry" />
        </mxCell>
        <mxCell id="DyScq_LiReuTui2nNU70-4" style="edgeStyle=orthogonalEdgeStyle;rounded=0;orthogonalLoop=1;jettySize=auto;html=1;entryX=0.25;entryY=0;entryDx=0;entryDy=0;endArrow=none;endFill=0;" edge="1" parent="1" source="DyScq_LiReuTui2nNU70-2" target="1EifoONmQTZ0GJib-Hqg-1">
          <mxGeometry relative="1" as="geometry" />
        </mxCell>
        <mxCell id="DyScq_LiReuTui2nNU70-6" value="1" style="edgeLabel;html=1;align=center;verticalAlign=middle;resizable=0;points=[];" connectable="0" vertex="1" parent="DyScq_LiReuTui2nNU70-4">
          <mxGeometry x="-0.4286" y="-1" relative="1" as="geometry">
            <mxPoint as="offset" />
          </mxGeometry>
        </mxCell>
        <mxCell id="0LSry7-kuJGnTa4c1hF4-3" value="" style="endArrow=none;html=1;rounded=0;exitX=1;exitY=0.5;exitDx=0;exitDy=0;entryX=0.088;entryY=0.406;entryDx=0;entryDy=0;entryPerimeter=0;" edge="1" parent="1" source="MXyoK0AOpPa2jAWidQvX-67" target="0LSry7-kuJGnTa4c1hF4-2">
          <mxGeometry width="50" height="50" relative="1" as="geometry">
            <mxPoint x="270" y="338" as="sourcePoint" />
            <mxPoint x="320" y="288" as="targetPoint" />
          </mxGeometry>
        </mxCell>
        <mxCell id="0LSry7-kuJGnTa4c1hF4-4" value="n" style="edgeLabel;html=1;align=center;verticalAlign=middle;resizable=0;points=[];" vertex="1" connectable="0" parent="0LSry7-kuJGnTa4c1hF4-3">
          <mxGeometry x="0.2478" y="-1" relative="1" as="geometry">
            <mxPoint as="offset" />
          </mxGeometry>
        </mxCell>
        <mxCell id="0LSry7-kuJGnTa4c1hF4-6" value="" style="endArrow=none;html=1;rounded=0;exitX=0.395;exitY=1.06;exitDx=0;exitDy=0;exitPerimeter=0;" edge="1" parent="1" source="MXyoK0AOpPa2jAWidQvX-67" target="0LSry7-kuJGnTa4c1hF4-7">
          <mxGeometry width="50" height="50" relative="1" as="geometry">
            <mxPoint x="81" y="338" as="sourcePoint" />
            <mxPoint x="-45" y="495" as="targetPoint" />
          </mxGeometry>
        </mxCell>
        <mxCell id="0LSry7-kuJGnTa4c1hF4-7" value="Invoice_ID(FK)" style="ellipse;whiteSpace=wrap;html=1;" vertex="1" parent="1">
          <mxGeometry x="-137" y="510" width="120" height="80" as="geometry" />
        </mxCell>
        <mxCell id="b5bwdDJgUHQUDzqU0FqJ-3" value="Last_Name" style="ellipse;whiteSpace=wrap;html=1;align=center;" vertex="1" parent="1">
          <mxGeometry x="-375.5" y="1476" width="97" height="39" as="geometry" />
        </mxCell>
        <mxCell id="b5bwdDJgUHQUDzqU0FqJ-4" value="First_Name" style="ellipse;whiteSpace=wrap;html=1;align=center;" vertex="1" parent="1">
          <mxGeometry x="-459" y="1455" width="100" height="40" as="geometry" />
        </mxCell>
        <mxCell id="b5bwdDJgUHQUDzqU0FqJ-5" value="" style="endArrow=none;html=1;rounded=0;exitX=0.373;exitY=0.008;exitDx=0;exitDy=0;exitPerimeter=0;entryX=0.5;entryY=1;entryDx=0;entryDy=0;" edge="1" parent="1" source="b5bwdDJgUHQUDzqU0FqJ-3" target="QP6WqcFXJLlvUmGamy97-28">
          <mxGeometry relative="1" as="geometry">
            <mxPoint x="-171" y="1404" as="sourcePoint" />
            <mxPoint x="-11" y="1404" as="targetPoint" />
          </mxGeometry>
        </mxCell>
        <mxCell id="b5bwdDJgUHQUDzqU0FqJ-6" value="" style="endArrow=none;html=1;rounded=0;exitX=0.5;exitY=0;exitDx=0;exitDy=0;entryX=0.5;entryY=1;entryDx=0;entryDy=0;" edge="1" parent="1" source="b5bwdDJgUHQUDzqU0FqJ-4" target="QP6WqcFXJLlvUmGamy97-28">
          <mxGeometry relative="1" as="geometry">
            <mxPoint x="-171" y="1404" as="sourcePoint" />
            <mxPoint x="-11" y="1404" as="targetPoint" />
          </mxGeometry>
        </mxCell>
        <mxCell id="b5bwdDJgUHQUDzqU0FqJ-8" value="Person_ID" style="ellipse;whiteSpace=wrap;html=1;align=center;fontStyle=4;" vertex="1" parent="1">
          <mxGeometry x="-275" y="1479" width="100" height="40" as="geometry" />
        </mxCell>
        <mxCell id="b5bwdDJgUHQUDzqU0FqJ-9" value="" style="endArrow=none;html=1;rounded=0;exitX=0.5;exitY=1;exitDx=0;exitDy=0;entryX=0.5;entryY=0;entryDx=0;entryDy=0;" edge="1" parent="1" source="QP6WqcFXJLlvUmGamy97-28" target="b5bwdDJgUHQUDzqU0FqJ-8">
          <mxGeometry relative="1" as="geometry">
            <mxPoint x="-171" y="1575" as="sourcePoint" />
            <mxPoint x="-11" y="1575" as="targetPoint" />
          </mxGeometry>
        </mxCell>
        <mxCell id="yMdxF9pOSsyhUp3QB0oe-1" value="Procedure_Name" style="ellipse;whiteSpace=wrap;html=1;align=center;" vertex="1" parent="1">
          <mxGeometry x="848" y="531" width="100" height="40" as="geometry" />
        </mxCell>
        <mxCell id="rPJXYG89hiFW9ZgSo6jg-2" style="rounded=0;orthogonalLoop=1;jettySize=auto;html=1;entryX=0.025;entryY=0.088;entryDx=0;entryDy=0;endArrow=none;endFill=0;exitX=0.75;exitY=1;exitDx=0;exitDy=0;entryPerimeter=0;" edge="1" parent="1" target="rPJXYG89hiFW9ZgSo6jg-3">
          <mxGeometry relative="1" as="geometry">
            <mxPoint x="207" y="1634.5" as="targetPoint" />
            <mxPoint x="-256" y="1345.5" as="sourcePoint" />
          </mxGeometry>
        </mxCell>
        <mxCell id="rPJXYG89hiFW9ZgSo6jg-3" value="Gender" style="ellipse;whiteSpace=wrap;html=1;align=center;" vertex="1" parent="1">
          <mxGeometry x="-176" y="1467" width="81" height="40" as="geometry" />
        </mxCell>
        <mxCell id="rPJXYG89hiFW9ZgSo6jg-4" style="rounded=0;orthogonalLoop=1;jettySize=auto;html=1;entryX=0;entryY=0.25;entryDx=0;entryDy=0;endArrow=none;endFill=0;" edge="1" parent="1" source="rPJXYG89hiFW9ZgSo6jg-5" target="QP6WqcFXJLlvUmGamy97-28">
          <mxGeometry relative="1" as="geometry">
            <mxPoint x="-385.0000000000002" y="1260" as="targetPoint" />
          </mxGeometry>
        </mxCell>
        <mxCell id="rPJXYG89hiFW9ZgSo6jg-5" value="DOB" style="ellipse;whiteSpace=wrap;html=1;align=center;" vertex="1" parent="1">
          <mxGeometry x="-492" y="1201" width="100" height="40" as="geometry" />
        </mxCell>
        <mxCell id="rPJXYG89hiFW9ZgSo6jg-6" value="" style="endArrow=none;html=1;rounded=0;exitX=0.25;exitY=1;exitDx=0;exitDy=0;" edge="1" parent="1" source="eQNqrHPPaoRz0vHPKy6t-3" target="rPJXYG89hiFW9ZgSo6jg-7">
          <mxGeometry width="50" height="50" relative="1" as="geometry">
            <mxPoint x="-45" y="779" as="sourcePoint" />
            <mxPoint x="-585" y="594" as="targetPoint" />
          </mxGeometry>
        </mxCell>
        <mxCell id="rPJXYG89hiFW9ZgSo6jg-7" value="Person_ID(FK)" style="ellipse;whiteSpace=wrap;html=1;" vertex="1" parent="1">
          <mxGeometry x="-645" y="554" width="120" height="80" as="geometry" />
        </mxCell>
      </root>
    </mxGraphModel>
  </diagram>
</mxfile>
